<svg xmlns="http://www.w3.org/2000/svg" width="320" height="480" viewBox="1728 1056 320 480" role="img" aria-label="Kingdom — dungeon"><title>Kingdom — dungeon</title><desc>Kingdom — dungeon</desc><defs><pattern id="k-grass" width="16" height="16" patternUnits="userSpaceOnUse"><rect width="16" height="16" fill="#3d5026"/><rect x="3" y="4" width="2" height="2" fill="#30401d"/><rect x="11" y="9" width="2" height="2" fill="#30401d"/><rect x="7" y="12" width="2" height="2" fill="#6c5126"/><rect x="13" y="2" width="2" height="2" fill="#6c5126"/></pattern><pattern id="k-cobble" width="24" height="24" patternUnits="userSpaceOnUse"><rect width="24" height="24" fill="#a89a7e"/><rect x="1" y="1" width="10" height="10" fill="#bcad8b"/><rect x="13" y="1" width="10" height="10" fill="#b3a482"/><rect x="1" y="13" width="10" height="10" fill="#b7a986"/><rect x="13" y="13" width="10" height="10" fill="#bcad8b"/><rect x="1" y="1" width="10" height="2" fill="#cbbd97"/></pattern><pattern id="k-water" width="32" height="16" patternUnits="userSpaceOnUse"><rect width="32" height="16" fill="#3f7fbf"/><rect x="4" y="4" width="8" height="2" fill="#d5ecf7" opacity="0.6"/><rect x="20" y="10" width="8" height="2" fill="#d5ecf7" opacity="0.6"/></pattern><pattern id="k-till" width="16" height="16" patternUnits="userSpaceOnUse"><rect width="16" height="16" fill="#453623"/><rect x="0" y="6" width="16" height="3" fill="#372a1a"/><rect x="0" y="14" width="16" height="2" fill="#372a1a" opacity="0.7"/></pattern><linearGradient id="k-sky" x1="0" y1="0" x2="0" y2="1"><stop offset="0" stop-color="#0e1526"/><stop offset="0.55" stop-color="#16223e"/><stop offset="1" stop-color="#24365c"/></linearGradient><linearGradient id="k-waterg" x1="0" y1="0" x2="0" y2="1"><stop offset="0" stop-color="#1d3a5e"/><stop offset="1" stop-color="#0e1f36"/></linearGradient><radialGradient id="k-lampg"><stop offset="0" stop-color="#ffd98a" stop-opacity="0.55"/><stop offset="1" stop-color="#ffd98a" stop-opacity="0"/></radialGradient><radialGradient id="k-fireg"><stop offset="0" stop-color="#ffe9a0"/><stop offset="0.5" stop-color="#ff9e3c"/><stop offset="1" stop-color="#e0523c" stop-opacity="0"/></radialGradient><radialGradient id="k-smokeg"><stop offset="0" stop-color="#5a5f6a" stop-opacity="0.75"/><stop offset="1" stop-color="#5a5f6a" stop-opacity="0"/></radialGradient><linearGradient id="k-aurora" x1="0" y1="0" x2="0" y2="1"><stop offset="0" stop-color="#4fe0c0" stop-opacity="0.0"/><stop offset="0.5" stop-color="#4fe0c0" stop-opacity="0.5"/><stop offset="1" stop-color="#9a6ff0" stop-opacity="0.0"/></linearGradient><g id="k-pine" aria-hidden="true"><rect x="10" y="26" width="4" height="8" fill="#5a3d24"/><rect x="4" y="18" width="16" height="10" fill="#30401d"/><rect x="6" y="10" width="12" height="10" fill="#653e1e"/><rect x="8" y="2" width="8" height="10" fill="#653e1e"/><rect x="8" y="2" width="3" height="18" fill="#30401d" opacity="0.45"/></g><g id="k-oak" aria-hidden="true"><rect x="10" y="22" width="5" height="12" fill="#5a3d24"/><rect x="2" y="10" width="20" height="14" fill="#653e1e"/><rect x="6" y="4" width="12" height="10" fill="#6c5126"/><rect x="2" y="10" width="6" height="14" fill="#30401d" opacity="0.5"/><rect x="11" y="6" width="3" height="6" fill="#6c5126"/></g><g id="k-bare" aria-hidden="true"><rect x="11" y="14" width="3" height="20" fill="#4c3826"/><rect x="4" y="8" width="8" height="3" fill="#4c3826"/><rect x="13" y="4" width="8" height="3" fill="#4c3826"/><rect x="9" y="18" width="6" height="3" fill="#4c3826"/></g><g id="k-bush" aria-hidden="true"><rect x="0" y="4" width="14" height="8" fill="#653e1e"/><rect x="3" y="1" width="8" height="6" fill="#6c5126"/><rect x="0" y="4" width="4" height="8" fill="#30401d" opacity="0.5"/></g><g id="k-rock" aria-hidden="true"><polygon points="0,10 4,2 12,0 16,8 12,12 2,12" fill="#9aa0a8"/><polygon points="4,2 12,0 10,5 5,6" fill="#c3c9d1"/></g><g id="k-tuft" aria-hidden="true"><rect x="0" y="2" width="2" height="5" fill="#30401d"/><rect x="3" y="0" width="2" height="7" fill="#30401d"/><rect x="6" y="3" width="2" height="4" fill="#30401d"/></g><g id="k-flower" aria-hidden="true"><rect x="3" y="4" width="2" height="7" fill="#30401d"/><rect x="1" y="0" width="3" height="3" fill="#e07b3c"/><rect x="4" y="1" width="3" height="3" fill="#e07b3c"/><rect x="2" y="3" width="4" height="2" fill="#ffffff" opacity="0.7"/></g><g id="k-fence" aria-hidden="true"><rect x="0" y="0" width="4" height="12" fill="#66401f"/><rect x="28" y="0" width="4" height="12" fill="#66401f"/><rect x="0" y="2" width="32" height="3" fill="#8a5a33"/><rect x="0" y="7" width="32" height="3" fill="#8a5a33"/></g><g id="k-lamp" aria-hidden="true"><rect x="4" y="8" width="3" height="20" fill="#3a3f4a"/><rect x="1" y="0" width="9" height="9" fill="#20242e"/><rect x="3" y="2" width="5" height="5" fill="#f7d774" class="k-lampglass"/><rect x="0" y="8" width="11" height="2" fill="#3a3f4a"/></g></defs><rect x="1728" y="1056" width="320" height="202" fill="url(#k-sky)"/><circle cx="1769" cy="1069" r="2" fill="#dfe8fa" opacity="0.5"/><circle cx="1942" cy="1166" r="1" fill="#dfe8fa" opacity="0.7"/><circle cx="1795" cy="1095" r="1" fill="#dfe8fa" opacity="0.9"/><circle cx="1968" cy="1192" r="1" fill="#dfe8fa" opacity="0.5"/><circle cx="1821" cy="1121" r="1" fill="#dfe8fa" opacity="0.7"/><circle cx="1994" cy="1218" r="2" fill="#dfe8fa" opacity="0.9"/><circle cx="1847" cy="1147" r="1" fill="#dfe8fa" opacity="0.5"/><circle cx="2020" cy="1076" r="1" fill="#dfe8fa" opacity="0.7"/><circle cx="1873" cy="1173" r="1" fill="#dfe8fa" opacity="0.9"/><circle cx="2046" cy="1102" r="1" fill="#dfe8fa" opacity="0.5"/><circle cx="1899" cy="1199" r="2" fill="#dfe8fa" opacity="0.7"/><circle cx="1752" cy="1128" r="1" fill="#dfe8fa" opacity="0.9"/><circle cx="1925" cy="1057" r="1" fill="#dfe8fa" opacity="0.5"/><circle cx="1778" cy="1154" r="1" fill="#dfe8fa" opacity="0.7"/><circle cx="1951" cy="1083" r="1" fill="#dfe8fa" opacity="0.9"/><circle cx="1804" cy="1180" r="2" fill="#dfe8fa" opacity="0.5"/><circle cx="1977" cy="1109" r="1" fill="#dfe8fa" opacity="0.7"/><circle cx="1830" cy="1206" r="1" fill="#dfe8fa" opacity="0.9"/><circle cx="2003" cy="1135" r="1" fill="#dfe8fa" opacity="0.5"/><circle cx="1856" cy="1064" r="1" fill="#dfe8fa" opacity="0.7"/><circle cx="2029" cy="1161" r="2" fill="#dfe8fa" opacity="0.9"/><circle cx="1882" cy="1090" r="1" fill="#dfe8fa" opacity="0.5"/><rect x="0" y="0" width="2048" height="1536" fill="url(#k-grass)"/><ellipse cx="151" cy="298" rx="97" ry="93" fill="#6c5126" opacity="0.28"/><ellipse cx="794" cy="1427" rx="161" ry="50" fill="#30401d" opacity="0.28"/><ellipse cx="1437" cy="1415" rx="171" ry="106" fill="#6c5126" opacity="0.28"/><ellipse cx="834" cy="673" rx="168" ry="80" fill="#6c5126" opacity="0.28"/><ellipse cx="1054" cy="925" rx="133" ry="102" fill="#30401d" opacity="0.28"/><ellipse cx="1065" cy="941" rx="82" ry="56" fill="#6c5126" opacity="0.28"/><ellipse cx="129" cy="1468" rx="97" ry="94" fill="#30401d" opacity="0.28"/><ellipse cx="1095" cy="1307" rx="176" ry="108" fill="#6c5126" opacity="0.28"/><ellipse cx="408" cy="647" rx="117" ry="82" fill="#6c5126" opacity="0.28"/><ellipse cx="1265" cy="861" rx="123" ry="106" fill="#30401d" opacity="0.28"/><ellipse cx="326" cy="720" rx="157" ry="58" fill="#6c5126" opacity="0.28"/><ellipse cx="1685" cy="814" rx="101" ry="93" fill="#6c5126" opacity="0.28"/><ellipse cx="756" cy="610" rx="170" ry="56" fill="#30401d" opacity="0.28"/><ellipse cx="1416" cy="365" rx="132" ry="99" fill="#6c5126" opacity="0.28"/><ellipse cx="1118" cy="222" rx="83" ry="56" fill="#6c5126" opacity="0.28"/><ellipse cx="2031" cy="764" rx="94" ry="45" fill="#30401d" opacity="0.28"/><ellipse cx="815" cy="1096" rx="123" ry="105" fill="#6c5126" opacity="0.28"/><ellipse cx="2025" cy="210" rx="106" ry="46" fill="#6c5126" opacity="0.28"/><ellipse cx="1265" cy="572" rx="117" ry="74" fill="#30401d" opacity="0.28"/><ellipse cx="888" cy="592" rx="142" ry="81" fill="#6c5126" opacity="0.28"/><ellipse cx="1671" cy="783" rx="180" ry="92" fill="#6c5126" opacity="0.28"/><ellipse cx="90" cy="758" rx="181" ry="80" fill="#30401d" opacity="0.28"/><ellipse cx="754" cy="913" rx="143" ry="49" fill="#6c5126" opacity="0.28"/><ellipse cx="1864" cy="616" rx="160" ry="44" fill="#6c5126" opacity="0.28"/><ellipse cx="1204" cy="1440" rx="180" ry="82" fill="#30401d" opacity="0.28"/><ellipse cx="1136" cy="758" rx="164" ry="43" fill="#6c5126" opacity="0.28"/><ellipse cx="760" cy="451" rx="166" ry="95" fill="#30401d" opacity="0.28"/><ellipse cx="1594" cy="1194" rx="150" ry="93" fill="#6c5126" opacity="0.28"/><ellipse cx="1063" cy="676" rx="131" ry="87" fill="#6c5126" opacity="0.28"/><ellipse cx="656" cy="1104" rx="122" ry="42" fill="#30401d" opacity="0.28"/><ellipse cx="1565" cy="469" rx="113" ry="84" fill="#6c5126" opacity="0.28"/><ellipse cx="54" cy="1481" rx="171" ry="40" fill="#6c5126" opacity="0.28"/><ellipse cx="2022" cy="1388" rx="76" ry="82" fill="#30401d" opacity="0.28"/><ellipse cx="1793" cy="1430" rx="95" ry="71" fill="#6c5126" opacity="0.28"/><ellipse cx="886" cy="324" rx="170" ry="49" fill="#6c5126" opacity="0.28"/><ellipse cx="1747" cy="1069" rx="97" ry="74" fill="#30401d" opacity="0.28"/><ellipse cx="1696" cy="232" rx="180" ry="74" fill="#6c5126" opacity="0.28"/><ellipse cx="1915" cy="650" rx="147" ry="89" fill="#6c5126" opacity="0.28"/><ellipse cx="88" cy="661" rx="186" ry="47" fill="#30401d" opacity="0.28"/><ellipse cx="859" cy="469" rx="178" ry="45" fill="#6c5126" opacity="0.28"/><ellipse cx="456" cy="1278" rx="124" ry="82" fill="#6c5126" opacity="0.28"/><ellipse cx="491" cy="265" rx="145" ry="94" fill="#30401d" opacity="0.28"/><ellipse cx="612" cy="1149" rx="88" ry="53" fill="#6c5126" opacity="0.28"/><ellipse cx="1093" cy="1316" rx="188" ry="67" fill="#6c5126" opacity="0.28"/><ellipse cx="622" cy="359" rx="128" ry="47" fill="#30401d" opacity="0.28"/><ellipse cx="1705" cy="865" rx="188" ry="92" fill="#6c5126" opacity="0.28"/><ellipse cx="1819" cy="496" rx="96" ry="51" fill="#6c5126" opacity="0.28"/><ellipse cx="627" cy="997" rx="75" ry="68" fill="#30401d" opacity="0.28"/><ellipse cx="16" cy="851" rx="150" ry="81" fill="#6c5126" opacity="0.28"/><ellipse cx="1634" cy="443" rx="103" ry="65" fill="#6c5126" opacity="0.28"/><use href="#k-tuft" x="1916" y="1008"/><use href="#k-pine" x="1859" y="984"/><use href="#k-pine" x="1953" y="989"/><use href="#k-oak" x="1939" y="990"/><use href="#k-tuft" x="1989" y="1027"/><use href="#k-pine" x="1861" y="1001"/><use href="#k-pine" x="1943" y="1006"/><use href="#k-tuft" x="1849" y="1040"/><use href="#k-pine" x="1945" y="1021"/><use href="#k-pine" x="1945" y="1022"/><use href="#k-pine" x="1943" y="1035"/><use href="#k-oak" x="1765" y="1040"/><use href="#k-pine" x="1805" y="1046"/><use href="#k-tuft" x="1659" y="1076"/><rect x="1856" y="672" width="192" height="416" fill="none" stroke="#ffffff" stroke-width="2" stroke-dasharray="10 8" opacity="0.25"/><use href="#k-tuft" x="2023" y="1139"/><use href="#k-flower" x="1875" y="1137"/><use href="#k-flower" x="1772" y="1145"/><use href="#k-tuft" x="1737" y="1163"/><use href="#k-tuft" x="2001" y="1166"/><use href="#k-tuft" x="1659" y="1176"/><use href="#k-flower" x="1661" y="1179"/><use href="#k-tuft" x="1842" y="1190"/><use href="#k-flower" x="1806" y="1213"/><use href="#k-bush" x="1674" y="1213"/><use href="#k-tuft" x="1697" y="1226"/><polygon points="-1,1232 1663,1296 1665,1232 1,1168" fill="url(#k-waterg)"/><polygon points="1634,1276 1698,1436 1758,1412 1694,1252" fill="url(#k-waterg)"/><rect x="1568" y="1424" width="224" height="112" fill="url(#k-waterg)"/><polyline points="-2,1240 1662,1304" fill="none" stroke="#453623" stroke-width="10" opacity="0.8"/><polyline points="2,1160 1666,1224" fill="none" stroke="#453623" stroke-width="10" opacity="0.8"/><polyline points="1627,1279 1691,1439" fill="none" stroke="#453623" stroke-width="10" opacity="0.8"/><polyline points="1701,1249 1765,1409" fill="none" stroke="#453623" stroke-width="10" opacity="0.8"/><rect x="1574" y="1426" width="14" height="3" fill="#d5ecf7" opacity="0.7"/><rect x="1605" y="1428" width="14" height="3" fill="#d5ecf7" opacity="0.7"/><rect x="1627" y="1427" width="14" height="3" fill="#d5ecf7" opacity="0.7"/><rect x="1650" y="1428" width="14" height="3" fill="#d5ecf7" opacity="0.7"/><rect x="1680" y="1424" width="14" height="3" fill="#d5ecf7" opacity="0.7"/><rect x="1710" y="1428" width="14" height="3" fill="#d5ecf7" opacity="0.7"/><rect x="1736" y="1427" width="14" height="3" fill="#d5ecf7" opacity="0.7"/><rect x="1760" y="1427" width="14" height="3" fill="#d5ecf7" opacity="0.7"/><rect x="1567" y="1439" width="3" height="14" fill="#d5ecf7" opacity="0.7"/><rect x="1567" y="1463" width="3" height="14" fill="#d5ecf7" opacity="0.7"/><rect x="1567" y="1490" width="3" height="14" fill="#d5ecf7" opacity="0.7"/><rect x="1569" y="1511" width="3" height="14" fill="#d5ecf7" opacity="0.7"/><use href="#k-bush" x="1997" y="1252"/><use href="#k-tuft" x="1898" y="1271"/><use href="#k-tuft" x="1950" y="1273"/><use href="#k-tuft" x="2043" y="1273"/><use href="#k-tuft" x="1744" y="1277"/><use href="#k-tuft" x="1955" y="1297"/><use href="#k-flower" x="1865" y="1295"/><use href="#k-tuft" x="1824" y="1301"/><use href="#k-tuft" x="1903" y="1302"/><use href="#k-flower" x="2017" y="1312"/><use href="#k-flower" x="2034" y="1314"/><use href="#k-tuft" x="1978" y="1333"/><use href="#k-tuft" x="1971" y="1334"/><use href="#k-tuft" x="1824" y="1335"/><use href="#k-tuft" x="1916" y="1354"/><use href="#k-flower" x="1854" y="1356"/><use href="#k-tuft" x="1875" y="1364"/><use href="#k-tuft" x="1960" y="1385"/><use href="#k-rock" x="2012" y="1392"/><use href="#k-flower" x="1877" y="1406"/><use href="#k-flower" x="2012" y="1426"/><use href="#k-tuft" x="1828" y="1455"/><use href="#k-tuft" x="1796" y="1466"/><use href="#k-tuft" x="2037" y="1470"/><use href="#k-rock" x="2008" y="1467"/><use href="#k-tuft" x="1930" y="1478"/><use href="#k-flower" x="1832" y="1518"/><polyline points="0,0 0,0 0,0 0,0" fill="none" stroke="#3f362a" stroke-width="40" stroke-linejoin="round" stroke-linecap="round"/><polyline points="0,0 0,0 0,0 0,0" fill="none" stroke="#7a6a52" stroke-width="32" stroke-linejoin="round" stroke-linecap="round"/><polyline points="0,0 0,0 0,0 0,0" fill="none" stroke="url(#k-cobble)" stroke-width="28" stroke-linejoin="round" stroke-linecap="round"/><polyline points="0,0 0,0 0,0 0,0" fill="none" stroke="#a89a80" stroke-width="3" stroke-linejoin="round" opacity="0.5"/><polyline points="0,0 0,0 0,0" fill="none" stroke="#3f362a" stroke-width="40" stroke-linejoin="round" stroke-linecap="round"/><polyline points="0,0 0,0 0,0" fill="none" stroke="#7a6a52" stroke-width="32" stroke-linejoin="round" stroke-linecap="round"/><polyline points="0,0 0,0 0,0" fill="none" stroke="url(#k-cobble)" stroke-width="28" stroke-linejoin="round" stroke-linecap="round"/><polyline points="0,0 0,0 0,0" fill="none" stroke="#a89a80" stroke-width="3" stroke-linejoin="round" opacity="0.5"/><polyline points="0,0 0,0 0,0 0,0" fill="none" stroke="#3f362a" stroke-width="60" stroke-linejoin="round" stroke-linecap="round"/><polyline points="0,0 0,0 0,0 0,0" fill="none" stroke="#7a6a52" stroke-width="52" stroke-linejoin="round" stroke-linecap="round"/><polyline points="0,0 0,0 0,0 0,0" fill="none" stroke="url(#k-cobble)" stroke-width="48" stroke-linejoin="round" stroke-linecap="round"/><polyline points="0,0 0,0 0,0 0,0" fill="none" stroke="#c9bfa8" stroke-width="5" stroke-linejoin="round" opacity="0.65"/><polyline points="0,0 0,0 0,0 0,0" fill="none" stroke="#5a4f3e" stroke-width="2" stroke-linejoin="round" opacity="0.5" stroke-dasharray="2 26"/><ellipse cx="1295" cy="1441" rx="44" ry="20" fill="url(#k-lampg)"/><use href="#k-lamp" x="1290" y="1413"/><circle cx="1295" cy="1419" r="16" fill="url(#k-lampg)"/><ellipse cx="1599" cy="1398" rx="44" ry="20" fill="url(#k-lampg)"/><use href="#k-lamp" x="1594" y="1370"/><circle cx="1599" cy="1376" r="16" fill="url(#k-lampg)"/><circle cx="1500" cy="368" r="6" fill="#6e5f4a" stroke="#3f362a" stroke-width="2"/><circle cx="1496" cy="560" r="6" fill="#6e5f4a" stroke="#3f362a" stroke-width="2"/><circle cx="1040" cy="1120" r="6" fill="#6e5f4a" stroke="#3f362a" stroke-width="2"/><circle cx="1024" cy="864" r="6" fill="#6e5f4a" stroke="#3f362a" stroke-width="2"/><circle cx="1216" cy="1000" r="6" fill="#6e5f4a" stroke="#3f362a" stroke-width="2"/><circle cx="1936" cy="1424" r="6" fill="#6e5f4a" stroke="#3f362a" stroke-width="2"/><circle cx="1312" cy="656" r="6" fill="#6e5f4a" stroke="#3f362a" stroke-width="2"/><circle cx="480" cy="1232" r="6" fill="#6e5f4a" stroke="#3f362a" stroke-width="2"/><circle cx="288" cy="1290" r="6" fill="#6e5f4a" stroke="#3f362a" stroke-width="2"/><circle cx="1728" cy="224" r="6" fill="#6e5f4a" stroke="#3f362a" stroke-width="2"/><circle cx="1168" cy="688" r="6" fill="#6e5f4a" stroke="#3f362a" stroke-width="2"/><circle cx="1696" cy="1440" r="6" fill="#6e5f4a" stroke="#3f362a" stroke-width="2"/><circle cx="1184" cy="1360" r="6" fill="#6e5f4a" stroke="#3f362a" stroke-width="2"/><circle cx="688" cy="1056" r="6" fill="#6e5f4a" stroke="#3f362a" stroke-width="2"/><circle cx="192" cy="320" r="6" fill="#6e5f4a" stroke="#3f362a" stroke-width="2"/><circle cx="288" cy="1060" r="6" fill="#6e5f4a" stroke="#3f362a" stroke-width="2"/><circle cx="1024" cy="1232" r="6" fill="#6e5f4a" stroke="#3f362a" stroke-width="2"/><circle cx="1056" cy="944" r="6" fill="#6e5f4a" stroke="#3f362a" stroke-width="2"/><circle cx="600" cy="1300" r="6" fill="#6e5f4a" stroke="#3f362a" stroke-width="2"/><circle cx="1088" cy="288" r="6" fill="#6e5f4a" stroke="#3f362a" stroke-width="2"/><circle cx="352" cy="464" r="6" fill="#6e5f4a" stroke="#3f362a" stroke-width="2"/><circle cx="712" cy="1232" r="6" fill="#6e5f4a" stroke="#3f362a" stroke-width="2"/><circle cx="736" cy="1300" r="6" fill="#6e5f4a" stroke="#3f362a" stroke-width="2"/><circle cx="1600" cy="864" r="6" fill="#6e5f4a" stroke="#3f362a" stroke-width="2"/><circle cx="400" cy="736" r="6" fill="#6e5f4a" stroke="#3f362a" stroke-width="2"/><circle cx="1024" cy="720" r="6" fill="#6e5f4a" stroke="#3f362a" stroke-width="2"/><circle cx="1936" cy="1192" r="6" fill="#6e5f4a" stroke="#3f362a" stroke-width="2"/><circle cx="384" cy="272" r="6" fill="#6e5f4a" stroke="#3f362a" stroke-width="2"/><circle cx="1376" cy="1416" r="6" fill="#6e5f4a" stroke="#3f362a" stroke-width="2"/><circle cx="1760" cy="400" r="6" fill="#6e5f4a" stroke="#3f362a" stroke-width="2"/><circle cx="1424" cy="1128" r="6" fill="#6e5f4a" stroke="#3f362a" stroke-width="2"/><circle cx="1700" cy="320" r="6" fill="#6e5f4a" stroke="#3f362a" stroke-width="2"/><circle cx="736" cy="656" r="6" fill="#6e5f4a" stroke="#3f362a" stroke-width="2"/><circle cx="1544" cy="1104" r="6" fill="#6e5f4a" stroke="#3f362a" stroke-width="2"/><ellipse cx="1707" cy="1107" rx="40" ry="6" fill="#0a0e1a" opacity="0.35"/><polygon points="1739,1066 1751,1058 1751,1097 1739,1105" fill="#2d2a25"/><rect x="1675" y="1066" width="64" height="39" fill="#3f3a34"/><rect x="1675" y="1099" width="64" height="6" fill="#322e2a"/><polygon points="1671,1066 1707,1039 1743,1066 1755,1058 1719,1031 1683,1058" fill="#25282c"/><polygon points="1743,1066 1707,1039 1719,1031 1755,1058" fill="#1c1e21"/><rect x="1690" y="1080" width="9" height="12" fill="#ffca6a" stroke="#3a3f4a" stroke-width="1.5"/><circle cx="1695" cy="1086" r="15" fill="url(#k-lampg)"/><rect x="1715" y="1080" width="9" height="12" fill="#ffca6a" stroke="#3a3f4a" stroke-width="1.5"/><circle cx="1719" cy="1086" r="15" fill="url(#k-lampg)"/><rect x="1700" y="1079" width="14" height="26" fill="#4a3220" stroke="#2e2013" stroke-width="1.5"/><ellipse cx="1707" cy="1109" rx="40" ry="10" fill="url(#k-lampg)"/><rect x="1721" y="1040" width="10" height="30" fill="#747b84"/><rect x="1719" y="1038" width="14" height="4" fill="#9aa0a8"/><rect x="1688" y="1075" width="14" height="18" fill="#ff9e3c" opacity="0.9"/><circle cx="1695" cy="1084" r="14" fill="url(#k-fireg)"/><polygon points="1681,1062 1695,1066 1681,1074" fill="#f28bb4"/><rect x="1680" y="1054" width="2" height="10" fill="#66401f"/><circle cx="1681" cy="1101" r="3" fill="#f28bb4"/><circle cx="1693" cy="1101" r="3" fill="#f28bb4"/><circle cx="1705" cy="1101" r="3" fill="#f28bb4"/><circle cx="1717" cy="1101" r="3" fill="#f28bb4"/><circle cx="1729" cy="1101" r="3" fill="#f28bb4"/><ellipse cx="1936" cy="1170" rx="30" ry="5" fill="#0a0e1a" opacity="0.35"/><rect x="1922" y="1154" width="29" height="14" fill="#747b84"/><rect x="1926" y="1142" width="19" height="12" fill="#9aa0a8"/><rect x="1931" y="1116" width="10" height="26" fill="#c3c9d1"/><circle cx="1936" cy="1110" r="7" fill="#c3c9d1"/><rect x="1924" y="1118" width="8" height="20" fill="#aab0ba"/><rect x="1940" y="1118" width="8" height="20" fill="#aab0ba"/><line x1="1944" y1="1120" x2="1956" y2="1108" stroke="#8b93a0" stroke-width="3"/><circle cx="1956" cy="1106" r="6" fill="#ffca6a"/><ellipse cx="1650" cy="1323" rx="50" ry="8" fill="#0a0e1a" opacity="0.35"/><polygon points="1690,1264 1702,1256 1702,1313 1690,1321" fill="#373228"/><rect x="1610" y="1264" width="80" height="57" fill="#4d4538"/><rect x="1610" y="1315" width="80" height="6" fill="#3e372d"/><polygon points="1604,1264 1650,1240 1696,1264 1708,1256 1662,1232 1616,1256" fill="#363128"/><rect x="1623" y="1278" width="9" height="12" fill="#ffca6a" stroke="#3a3f4a" stroke-width="1.5"/><circle cx="1628" cy="1284" r="15" fill="url(#k-lampg)"/><rect x="1646" y="1278" width="9" height="12" fill="#ffca6a" stroke="#3a3f4a" stroke-width="1.5"/><circle cx="1650" cy="1284" r="15" fill="url(#k-lampg)"/><rect x="1668" y="1278" width="9" height="12" fill="#ffca6a" stroke="#3a3f4a" stroke-width="1.5"/><circle cx="1672" cy="1284" r="15" fill="url(#k-lampg)"/><rect x="1641" y="1295" width="18" height="26" fill="#4a3220" stroke="#2e2013" stroke-width="1.5"/><ellipse cx="1650" cy="1325" rx="50" ry="10" fill="url(#k-lampg)"/><rect x="1682" y="1220" width="5" height="44" fill="#66401f"/><line x1="1682" y1="1220" x2="1712" y2="1234" stroke="#66401f" stroke-width="4"/><line x1="1712" y1="1234" x2="1712" y2="1252" stroke="#3a3f4a" stroke-width="2"/><rect x="1706" y="1252" width="12" height="10" fill="#8a5a33"/><ellipse cx="1936" cy="1410" rx="30" ry="5" fill="#0a0e1a" opacity="0.35"/><rect x="1912" y="1364" width="14" height="44" fill="#464a50"/><rect x="1946" y="1364" width="14" height="44" fill="#464a50"/><rect x="1912" y="1356" width="48" height="10" fill="#363a41"/><rect x="1916" y="1348" width="9" height="8" fill="#464a50"/><rect x="1932" y="1348" width="9" height="8" fill="#464a50"/><rect x="1948" y="1348" width="9" height="8" fill="#464a50"/><path d="M 1926.4 1408 L 1926.4 1377.4408 A 9.600000000000001 9.600000000000001 0 0 1 1945.6 1377.4408 L 1945.6 1408 Z" fill="#241d16"/><rect x="1914" y="1358" width="4" height="12" fill="#ff9e3c"/><circle cx="1916" cy="1356" r="18" fill="url(#k-fireg)"/><rect x="1954" y="1358" width="4" height="12" fill="#ff9e3c"/><circle cx="1956" cy="1356" r="18" fill="url(#k-fireg)"/><rect x="1670" y="1418" width="5" height="26" fill="#66401f"/><rect x="1688" y="1418" width="5" height="26" fill="#66401f"/><rect x="1706" y="1418" width="5" height="26" fill="#66401f"/><rect x="1724" y="1418" width="5" height="26" fill="#66401f"/><rect x="1664" y="1410" width="64" height="10" fill="#8a5a33"/><rect x="1664" y="1410" width="64" height="3" fill="#ab7a45"/><line x1="1668" y1="1410" x2="1668" y2="1420" stroke="#66401f" stroke-width="2"/><line x1="1680" y1="1410" x2="1680" y2="1420" stroke="#66401f" stroke-width="2"/><line x1="1692" y1="1410" x2="1692" y2="1420" stroke="#66401f" stroke-width="2"/><line x1="1704" y1="1410" x2="1704" y2="1420" stroke="#66401f" stroke-width="2"/><line x1="1716" y1="1410" x2="1716" y2="1420" stroke="#66401f" stroke-width="2"/><polygon points="1680,1446 1716,1446 1708,1458 1688,1458" fill="#66401f"/><rect x="1696" y="1426" width="3" height="22" fill="#66401f"/><polygon points="1699,1426 1714,1440 1699,1440" fill="#e8dcc0"/><clipPath id="k-clip-dungeon"><rect x="1728" y="1056" width="320" height="480"/></clipPath><g clip-path="url(#k-clip-dungeon)"></g><g id="k-hud"><g aria-hidden="true"><rect x="1533" y="1064" width="504" height="25" rx="10" fill="#141a26" opacity="0.78"/><text x="1544" y="1081" font-family="monospace" font-size="13" fill="#e8dcc0">Sudipto&#39;s Living Kingdom · night · autumn · clear · town</text></g><g aria-hidden="true"><rect x="1738" y="1504" width="190" height="25" rx="10" fill="#1d2433" opacity="0.8"/><text x="1749" y="1520" font-family="monospace" font-size="13" fill="#bfe0f2">Sudipto Kumar  · idle</text></g></g></svg>