<svg xmlns="http://www.w3.org/2000/svg" xmlns:xlink="http://www.w3.org/1999/xlink" viewBox="0 0 640 136" width="640" height="136" role="img" aria-labelledby="t d" shape-rendering="crispEdges"><title id="t">World events</title><desc id="d">REPAIR: CI IS FIXED. RELEASE: CLIPBOARD 3. EVENT: LEVEL 18 REACHED</desc><style>.fl{animation:fl 1s steps(1) infinite}@keyframes fl{0%{opacity:1}50%{opacity:.5}}.f1{animation:f1 .8s steps(1) infinite}@keyframes f1{0%{opacity:1}50%{opacity:0}}.f2{animation:f2 .8s steps(1) infinite}@keyframes f2{0%{opacity:0}50%{opacity:1}}.tw{animation:tw 2.6s ease-in-out infinite}@keyframes tw{0%,100%{opacity:.2}50%{opacity:1}}.bob{animation:bob .9s steps(1) infinite}@keyframes bob{0%{transform:translateY(0)}50%{transform:translateY(-4px)}}.bob2{animation:bob2 1.6s steps(1) infinite}@keyframes bob2{0%{transform:translateY(0)}50%{transform:translateY(-8px)}}.dr{animation:dr 90s linear infinite}@keyframes dr{from{transform:translateX(-160px)}to{transform:translateX(720px)}}.sm{animation:sm 3.2s linear infinite}@keyframes sm{0%{transform:translateY(0);opacity:0}15%{opacity:.85}100%{transform:translateY(-44px);opacity:0}}.wk{animation:wk var(--t,12s) linear infinite}@keyframes wk{0%,100%{transform:translateX(0)}50%{transform:translateX(var(--dx,48px))}}.wy{animation:wy var(--t,12s) linear infinite}@keyframes wy{0%,100%{transform:translateY(0)}50%{transform:translateY(var(--dy,40px))}}.fc{transform-box:fill-box;transform-origin:center;animation:fc var(--t,12s) steps(1) infinite}@keyframes fc{0%{transform:scaleX(1)}50%{transform:scaleX(-1)}}.rn{animation:rn .8s linear infinite}@keyframes rn{from{transform:translate(0,0)}to{transform:translate(-22px,88px)}}.lt{animation:lt 7s steps(1) infinite}@keyframes lt{0%,90%,94%,100%{opacity:0}91%,95%{opacity:.85}}.zz{animation:zz 3s linear infinite}@keyframes zz{0%{transform:translate(0,0);opacity:0}20%{opacity:1}100%{transform:translate(8px,-24px);opacity:0}}.fw{transform-box:fill-box;transform-origin:center;animation:fw 3s ease-out infinite}@keyframes fw{0%{transform:scale(.1);opacity:1}70%{opacity:1}100%{transform:scale(1.2);opacity:0}}.cf{animation:cf 5s linear infinite}@keyframes cf{from{transform:translateY(-20px)}to{transform:translateY(260px)}}.sw{transform-box:fill-box;transform-origin:50% 100%;animation:sw .9s steps(2) infinite}@keyframes sw{0%{transform:rotate(-35deg)}50%{transform:rotate(30deg)}}@keyframes sp{to{transform:rotate(360deg)}}.pu{animation:pu 3s ease-in-out infinite}@keyframes pu{0%,100%{opacity:.35}50%{opacity:.9}}.fa{animation:fa 9s linear infinite}@keyframes fa{0%{transform:translate(0,-10px)}100%{transform:translate(-36px,320px)}}@media (prefers-reduced-motion:reduce){*{animation:none!important}}</style><path fill="#0e1024" d="M0 0h640v136h-640z"/><path fill="#b07a1c" d="M8 0h624v136h-624zM0 8h640v120h-640z"/><path fill="#14162b" d="M12 4h616v128h-616zM4 12h632v112h-632z"/><path fill="#3a3f66" d="M23 16h186v104h-186zM20 19h192v98h-192z"/><path fill="#20223a" d="M26 19h180v98h-180zM23 22h186v92h-186z"/><path fill="#a7f070" d="M26 19h180v4h-180z"/><g><path fill="#a7f070" d="M53 32h7v3.5h-7zM49.5 35.5h7v3.5h-7zM32 39h7v3.5h-7zM46 39h7v3.5h-7zM35.5 42.5h14v3.5h-14zM39 46h7v3.5h-7z"/></g><path fill="#94b0c2" d="M72 38h10v2.5h-10zM72 40.5h2.5v2.5h-2.5zM82 40.5h2.5v2.5h-2.5zM72 43h2.5v2.5h-2.5zM82 43h2.5v2.5h-2.5zM72 45.5h10v2.5h-10zM72 48h2.5v2.5h-2.5zM77 48h2.5v2.5h-2.5zM72 50.5h2.5v2.5h-2.5zM79.5 50.5h2.5v2.5h-2.5zM72 53h2.5v2.5h-2.5zM82 53h2.5v2.5h-2.5zM87 38h12.5v2.5h-12.5zM87 40.5h2.5v2.5h-2.5zM87 43h2.5v2.5h-2.5zM87 45.5h10v2.5h-10zM87 48h2.5v2.5h-2.5zM87 50.5h2.5v2.5h-2.5zM87 53h12.5v2.5h-12.5zM102 38h10v2.5h-10zM102 40.5h2.5v2.5h-2.5zM112 40.5h2.5v2.5h-2.5zM102 43h2.5v2.5h-2.5zM112 43h2.5v2.5h-2.5zM102 45.5h10v2.5h-10zM102 48h2.5v2.5h-2.5zM102 50.5h2.5v2.5h-2.5zM102 53h2.5v2.5h-2.5zM119.5 38h7.5v2.5h-7.5zM117 40.5h2.5v2.5h-2.5zM127 40.5h2.5v2.5h-2.5zM117 43h2.5v2.5h-2.5zM127 43h2.5v2.5h-2.5zM117 45.5h12.5v2.5h-12.5zM117 48h2.5v2.5h-2.5zM127 48h2.5v2.5h-2.5zM117 50.5h2.5v2.5h-2.5zM127 50.5h2.5v2.5h-2.5zM117 53h2.5v2.5h-2.5zM127 53h2.5v2.5h-2.5zM132 38h12.5v2.5h-12.5zM137 40.5h2.5v2.5h-2.5zM137 43h2.5v2.5h-2.5zM137 45.5h2.5v2.5h-2.5zM137 48h2.5v2.5h-2.5zM137 50.5h2.5v2.5h-2.5zM132 53h12.5v2.5h-12.5zM147 38h10v2.5h-10zM147 40.5h2.5v2.5h-2.5zM157 40.5h2.5v2.5h-2.5zM147 43h2.5v2.5h-2.5zM157 43h2.5v2.5h-2.5zM147 45.5h10v2.5h-10zM147 48h2.5v2.5h-2.5zM152 48h2.5v2.5h-2.5zM147 50.5h2.5v2.5h-2.5zM154.5 50.5h2.5v2.5h-2.5zM147 53h2.5v2.5h-2.5zM157 53h2.5v2.5h-2.5z"/><path fill="#f4f4f4" d="M35 70h12v3h-12zM32 73h3v3h-3zM32 76h3v3h-3zM32 79h3v3h-3zM32 82h3v3h-3zM32 85h3v3h-3zM35 88h12v3h-12zM50 70h15v3h-15zM56 73h3v3h-3zM56 76h3v3h-3zM56 79h3v3h-3zM56 82h3v3h-3zM56 85h3v3h-3zM50 88h15v3h-15zM86 70h15v3h-15zM92 73h3v3h-3zM92 76h3v3h-3zM92 79h3v3h-3zM92 82h3v3h-3zM92 85h3v3h-3zM86 88h15v3h-15zM107 70h12v3h-12zM104 73h3v3h-3zM104 76h3v3h-3zM107 79h9v3h-9zM116 82h3v3h-3zM116 85h3v3h-3zM104 88h12v3h-12zM32 96h15v3h-15zM32 99h3v3h-3zM32 102h3v3h-3zM32 105h12v3h-12zM32 108h3v3h-3zM32 111h3v3h-3zM32 114h3v3h-3zM50 96h15v3h-15zM56 99h3v3h-3zM56 102h3v3h-3zM56 105h3v3h-3zM56 108h3v3h-3zM56 111h3v3h-3zM50 114h15v3h-15zM68 96h3v3h-3zM80 96h3v3h-3zM68 99h3v3h-3zM80 99h3v3h-3zM71 102h3v3h-3zM77 102h3v3h-3zM74 105h3v3h-3zM71 108h3v3h-3zM77 108h3v3h-3zM68 111h3v3h-3zM80 111h3v3h-3zM68 114h3v3h-3zM80 114h3v3h-3zM86 96h15v3h-15zM86 99h3v3h-3zM86 102h3v3h-3zM86 105h12v3h-12zM86 108h3v3h-3zM86 111h3v3h-3zM86 114h15v3h-15zM104 96h12v3h-12zM104 99h3v3h-3zM116 99h3v3h-3zM104 102h3v3h-3zM116 102h3v3h-3zM104 105h3v3h-3zM116 105h3v3h-3zM104 108h3v3h-3zM116 108h3v3h-3zM104 111h3v3h-3zM116 111h3v3h-3zM104 114h12v3h-12z"/><path fill="#3a3f66" d="M227 16h186v104h-186zM224 19h192v98h-192z"/><path fill="#20223a" d="M230 19h180v98h-180zM227 22h186v92h-186z"/><path fill="#ffcd75" d="M230 19h180v4h-180z"/><g><path fill="#f4f4f4" d="M246.5 32h7v3.5h-7zM243 35.5h14v3.5h-14zM243 39h3.5v3.5h-3.5zM250 39h7v3.5h-7zM243 42.5h14v3.5h-14zM243 46h14v3.5h-14zM246.5 49.5h7v3.5h-7z"/><path fill="#41a6f6" d="M246.5 39h3.5v3.5h-3.5z"/><path fill="#b13e53" d="M239.5 46h3.5v3.5h-3.5zM257 46h3.5v3.5h-3.5zM239.5 49.5h3.5v3.5h-3.5zM257 49.5h3.5v3.5h-3.5zM246.5 56.5h7v3.5h-7z"/><path fill="#ef7d57" d="M246.5 53h7v3.5h-7z"/></g><path fill="#94b0c2" d="M276 38h10v2.5h-10zM276 40.5h2.5v2.5h-2.5zM286 40.5h2.5v2.5h-2.5zM276 43h2.5v2.5h-2.5zM286 43h2.5v2.5h-2.5zM276 45.5h10v2.5h-10zM276 48h2.5v2.5h-2.5zM281 48h2.5v2.5h-2.5zM276 50.5h2.5v2.5h-2.5zM283.5 50.5h2.5v2.5h-2.5zM276 53h2.5v2.5h-2.5zM286 53h2.5v2.5h-2.5zM291 38h12.5v2.5h-12.5zM291 40.5h2.5v2.5h-2.5zM291 43h2.5v2.5h-2.5zM291 45.5h10v2.5h-10zM291 48h2.5v2.5h-2.5zM291 50.5h2.5v2.5h-2.5zM291 53h12.5v2.5h-12.5zM306 38h2.5v2.5h-2.5zM306 40.5h2.5v2.5h-2.5zM306 43h2.5v2.5h-2.5zM306 45.5h2.5v2.5h-2.5zM306 48h2.5v2.5h-2.5zM306 50.5h2.5v2.5h-2.5zM306 53h12.5v2.5h-12.5zM321 38h12.5v2.5h-12.5zM321 40.5h2.5v2.5h-2.5zM321 43h2.5v2.5h-2.5zM321 45.5h10v2.5h-10zM321 48h2.5v2.5h-2.5zM321 50.5h2.5v2.5h-2.5zM321 53h12.5v2.5h-12.5zM338.5 38h7.5v2.5h-7.5zM336 40.5h2.5v2.5h-2.5zM346 40.5h2.5v2.5h-2.5zM336 43h2.5v2.5h-2.5zM346 43h2.5v2.5h-2.5zM336 45.5h12.5v2.5h-12.5zM336 48h2.5v2.5h-2.5zM346 48h2.5v2.5h-2.5zM336 50.5h2.5v2.5h-2.5zM346 50.5h2.5v2.5h-2.5zM336 53h2.5v2.5h-2.5zM346 53h2.5v2.5h-2.5zM353.5 38h10v2.5h-10zM351 40.5h2.5v2.5h-2.5zM351 43h2.5v2.5h-2.5zM353.5 45.5h7.5v2.5h-7.5zM361 48h2.5v2.5h-2.5zM361 50.5h2.5v2.5h-2.5zM351 53h10v2.5h-10zM366 38h12.5v2.5h-12.5zM366 40.5h2.5v2.5h-2.5zM366 43h2.5v2.5h-2.5zM366 45.5h10v2.5h-10zM366 48h2.5v2.5h-2.5zM366 50.5h2.5v2.5h-2.5zM366 53h12.5v2.5h-12.5z"/><path fill="#f4f4f4" d="M239 70h12v3h-12zM236 73h3v3h-3zM236 76h3v3h-3zM236 79h3v3h-3zM236 82h3v3h-3zM236 85h3v3h-3zM239 88h12v3h-12zM254 70h3v3h-3zM254 73h3v3h-3zM254 76h3v3h-3zM254 79h3v3h-3zM254 82h3v3h-3zM254 85h3v3h-3zM254 88h15v3h-15zM272 70h15v3h-15zM278 73h3v3h-3zM278 76h3v3h-3zM278 79h3v3h-3zM278 82h3v3h-3zM278 85h3v3h-3zM272 88h15v3h-15zM290 70h12v3h-12zM290 73h3v3h-3zM302 73h3v3h-3zM290 76h3v3h-3zM302 76h3v3h-3zM290 79h12v3h-12zM290 82h3v3h-3zM290 85h3v3h-3zM290 88h3v3h-3zM308 70h12v3h-12zM308 73h3v3h-3zM320 73h3v3h-3zM308 76h3v3h-3zM320 76h3v3h-3zM308 79h12v3h-12zM308 82h3v3h-3zM320 82h3v3h-3zM308 85h3v3h-3zM320 85h3v3h-3zM308 88h12v3h-12zM329 70h9v3h-9zM326 73h3v3h-3zM338 73h3v3h-3zM326 76h3v3h-3zM338 76h3v3h-3zM326 79h3v3h-3zM338 79h3v3h-3zM326 82h3v3h-3zM338 82h3v3h-3zM326 85h3v3h-3zM338 85h3v3h-3zM329 88h9v3h-9zM347 70h9v3h-9zM344 73h3v3h-3zM356 73h3v3h-3zM344 76h3v3h-3zM356 76h3v3h-3zM344 79h15v3h-15zM344 82h3v3h-3zM356 82h3v3h-3zM344 85h3v3h-3zM356 85h3v3h-3zM344 88h3v3h-3zM356 88h3v3h-3zM362 70h12v3h-12zM362 73h3v3h-3zM374 73h3v3h-3zM362 76h3v3h-3zM374 76h3v3h-3zM362 79h12v3h-12zM362 82h3v3h-3zM368 82h3v3h-3zM362 85h3v3h-3zM371 85h3v3h-3zM362 88h3v3h-3zM374 88h3v3h-3zM380 70h12v3h-12zM380 73h3v3h-3zM392 73h3v3h-3zM380 76h3v3h-3zM392 76h3v3h-3zM380 79h3v3h-3zM392 79h3v3h-3zM380 82h3v3h-3zM392 82h3v3h-3zM380 85h3v3h-3zM392 85h3v3h-3zM380 88h12v3h-12zM239 96h9v3h-9zM236 99h3v3h-3zM248 99h3v3h-3zM248 102h3v3h-3zM242 105h6v3h-6zM248 108h3v3h-3zM236 111h3v3h-3zM248 111h3v3h-3zM239 114h9v3h-9z"/><path fill="#3a3f66" d="M431 16h186v104h-186zM428 19h192v98h-192z"/><path fill="#20223a" d="M434 19h180v98h-180zM431 22h186v92h-186z"/><path fill="#ffcd75" d="M434 19h180v4h-180z"/><g><path fill="#ffcd75" d="M440 32h28v3.5h-28zM440 35.5h3.5v3.5h-3.5zM447 35.5h14v3.5h-14zM464.5 35.5h3.5v3.5h-3.5zM440 39h3.5v3.5h-3.5zM447 39h14v3.5h-14zM464.5 39h3.5v3.5h-3.5zM443.5 42.5h21v3.5h-21zM447 46h14v3.5h-14zM450.5 49.5h7v3.5h-7zM450.5 53h7v3.5h-7z"/><path fill="#e0a030" d="M447 56.5h14v3.5h-14z"/></g><path fill="#94b0c2" d="M480 38h12.5v2.5h-12.5zM480 40.5h2.5v2.5h-2.5zM480 43h2.5v2.5h-2.5zM480 45.5h10v2.5h-10zM480 48h2.5v2.5h-2.5zM480 50.5h2.5v2.5h-2.5zM480 53h12.5v2.5h-12.5zM495 38h2.5v2.5h-2.5zM505 38h2.5v2.5h-2.5zM495 40.5h2.5v2.5h-2.5zM505 40.5h2.5v2.5h-2.5zM495 43h2.5v2.5h-2.5zM505 43h2.5v2.5h-2.5zM495 45.5h2.5v2.5h-2.5zM505 45.5h2.5v2.5h-2.5zM495 48h2.5v2.5h-2.5zM505 48h2.5v2.5h-2.5zM497.5 50.5h2.5v2.5h-2.5zM502.5 50.5h2.5v2.5h-2.5zM500 53h2.5v2.5h-2.5zM510 38h12.5v2.5h-12.5zM510 40.5h2.5v2.5h-2.5zM510 43h2.5v2.5h-2.5zM510 45.5h10v2.5h-10zM510 48h2.5v2.5h-2.5zM510 50.5h2.5v2.5h-2.5zM510 53h12.5v2.5h-12.5zM525 38h2.5v2.5h-2.5zM535 38h2.5v2.5h-2.5zM525 40.5h5v2.5h-5zM535 40.5h2.5v2.5h-2.5zM525 43h2.5v2.5h-2.5zM530 43h2.5v2.5h-2.5zM535 43h2.5v2.5h-2.5zM525 45.5h2.5v2.5h-2.5zM532.5 45.5h5v2.5h-5zM525 48h2.5v2.5h-2.5zM535 48h2.5v2.5h-2.5zM525 50.5h2.5v2.5h-2.5zM535 50.5h2.5v2.5h-2.5zM525 53h2.5v2.5h-2.5zM535 53h2.5v2.5h-2.5zM540 38h12.5v2.5h-12.5zM545 40.5h2.5v2.5h-2.5zM545 43h2.5v2.5h-2.5zM545 45.5h2.5v2.5h-2.5zM545 48h2.5v2.5h-2.5zM545 50.5h2.5v2.5h-2.5zM545 53h2.5v2.5h-2.5z"/><path fill="#f4f4f4" d="M440 70h3v3h-3zM440 73h3v3h-3zM440 76h3v3h-3zM440 79h3v3h-3zM440 82h3v3h-3zM440 85h3v3h-3zM440 88h15v3h-15zM458 70h15v3h-15zM458 73h3v3h-3zM458 76h3v3h-3zM458 79h12v3h-12zM458 82h3v3h-3zM458 85h3v3h-3zM458 88h15v3h-15zM476 70h3v3h-3zM488 70h3v3h-3zM476 73h3v3h-3zM488 73h3v3h-3zM476 76h3v3h-3zM488 76h3v3h-3zM476 79h3v3h-3zM488 79h3v3h-3zM476 82h3v3h-3zM488 82h3v3h-3zM479 85h3v3h-3zM485 85h3v3h-3zM482 88h3v3h-3zM494 70h15v3h-15zM494 73h3v3h-3zM494 76h3v3h-3zM494 79h12v3h-12zM494 82h3v3h-3zM494 85h3v3h-3zM494 88h15v3h-15zM512 70h3v3h-3zM512 73h3v3h-3zM512 76h3v3h-3zM512 79h3v3h-3zM512 82h3v3h-3zM512 85h3v3h-3zM512 88h15v3h-15zM554 70h3v3h-3zM551 73h6v3h-6zM554 76h3v3h-3zM554 79h3v3h-3zM554 82h3v3h-3zM554 85h3v3h-3zM551 88h9v3h-9zM569 70h9v3h-9zM566 73h3v3h-3zM578 73h3v3h-3zM566 76h3v3h-3zM578 76h3v3h-3zM569 79h9v3h-9zM566 82h3v3h-3zM578 82h3v3h-3zM566 85h3v3h-3zM578 85h3v3h-3zM569 88h9v3h-9zM440 96h12v3h-12zM440 99h3v3h-3zM452 99h3v3h-3zM440 102h3v3h-3zM452 102h3v3h-3zM440 105h12v3h-12zM440 108h3v3h-3zM446 108h3v3h-3zM440 111h3v3h-3zM449 111h3v3h-3zM440 114h3v3h-3zM452 114h3v3h-3zM458 96h15v3h-15zM458 99h3v3h-3zM458 102h3v3h-3zM458 105h12v3h-12zM458 108h3v3h-3zM458 111h3v3h-3zM458 114h15v3h-15zM479 96h9v3h-9zM476 99h3v3h-3zM488 99h3v3h-3zM476 102h3v3h-3zM488 102h3v3h-3zM476 105h15v3h-15zM476 108h3v3h-3zM488 108h3v3h-3zM476 111h3v3h-3zM488 111h3v3h-3zM476 114h3v3h-3zM488 114h3v3h-3zM497 96h12v3h-12zM494 99h3v3h-3zM494 102h3v3h-3zM494 105h3v3h-3zM494 108h3v3h-3zM494 111h3v3h-3zM497 114h12v3h-12zM512 96h3v3h-3zM524 96h3v3h-3zM512 99h3v3h-3zM524 99h3v3h-3zM512 102h3v3h-3zM524 102h3v3h-3zM512 105h15v3h-15zM512 108h3v3h-3zM524 108h3v3h-3zM512 111h3v3h-3zM524 111h3v3h-3zM512 114h3v3h-3zM524 114h3v3h-3zM530 96h15v3h-15zM530 99h3v3h-3zM530 102h3v3h-3zM530 105h12v3h-12zM530 108h3v3h-3zM530 111h3v3h-3zM530 114h15v3h-15zM548 96h12v3h-12zM548 99h3v3h-3zM560 99h3v3h-3zM548 102h3v3h-3zM560 102h3v3h-3zM548 105h3v3h-3zM560 105h3v3h-3zM548 108h3v3h-3zM560 108h3v3h-3zM548 111h3v3h-3zM560 111h3v3h-3zM548 114h12v3h-12z"/></svg>
