<svg xmlns="http://www.w3.org/2000/svg" width="700" height="296" viewBox="1100 1240 700 296" role="img" aria-label="Kingdom — harbor"><title>Kingdom — harbor</title><desc>Kingdom — harbor</desc><defs><pattern id="k-grass" width="16" height="16" patternUnits="userSpaceOnUse"><rect width="16" height="16" fill="#3d5026"/><rect x="3" y="4" width="2" height="2" fill="#30401d"/><rect x="11" y="9" width="2" height="2" fill="#30401d"/><rect x="7" y="12" width="2" height="2" fill="#6c5126"/><rect x="13" y="2" width="2" height="2" fill="#6c5126"/></pattern><pattern id="k-cobble" width="24" height="24" patternUnits="userSpaceOnUse"><rect width="24" height="24" fill="#a89a7e"/><rect x="1" y="1" width="10" height="10" fill="#bcad8b"/><rect x="13" y="1" width="10" height="10" fill="#b3a482"/><rect x="1" y="13" width="10" height="10" fill="#b7a986"/><rect x="13" y="13" width="10" height="10" fill="#bcad8b"/><rect x="1" y="1" width="10" height="2" fill="#cbbd97"/></pattern><pattern id="k-water" width="32" height="16" patternUnits="userSpaceOnUse"><rect width="32" height="16" fill="#3f7fbf"/><rect x="4" y="4" width="8" height="2" fill="#d5ecf7" opacity="0.6"/><rect x="20" y="10" width="8" height="2" fill="#d5ecf7" opacity="0.6"/></pattern><pattern id="k-till" width="16" height="16" patternUnits="userSpaceOnUse"><rect width="16" height="16" fill="#453623"/><rect x="0" y="6" width="16" height="3" fill="#372a1a"/><rect x="0" y="14" width="16" height="2" fill="#372a1a" opacity="0.7"/></pattern><linearGradient id="k-sky" x1="0" y1="0" x2="0" y2="1"><stop offset="0" stop-color="#0e1526"/><stop offset="0.55" stop-color="#16223e"/><stop offset="1" stop-color="#24365c"/></linearGradient><linearGradient id="k-waterg" x1="0" y1="0" x2="0" y2="1"><stop offset="0" stop-color="#1d3a5e"/><stop offset="1" stop-color="#0e1f36"/></linearGradient><radialGradient id="k-lampg"><stop offset="0" stop-color="#ffd98a" stop-opacity="0.55"/><stop offset="1" stop-color="#ffd98a" stop-opacity="0"/></radialGradient><radialGradient id="k-fireg"><stop offset="0" stop-color="#ffe9a0"/><stop offset="0.5" stop-color="#ff9e3c"/><stop offset="1" stop-color="#e0523c" stop-opacity="0"/></radialGradient><radialGradient id="k-smokeg"><stop offset="0" stop-color="#5a5f6a" stop-opacity="0.75"/><stop offset="1" stop-color="#5a5f6a" stop-opacity="0"/></radialGradient><linearGradient id="k-aurora" x1="0" y1="0" x2="0" y2="1"><stop offset="0" stop-color="#4fe0c0" stop-opacity="0.0"/><stop offset="0.5" stop-color="#4fe0c0" stop-opacity="0.5"/><stop offset="1" stop-color="#9a6ff0" stop-opacity="0.0"/></linearGradient><g id="k-pine" aria-hidden="true"><rect x="10" y="26" width="4" height="8" fill="#5a3d24"/><rect x="4" y="18" width="16" height="10" fill="#30401d"/><rect x="6" y="10" width="12" height="10" fill="#653e1e"/><rect x="8" y="2" width="8" height="10" fill="#653e1e"/><rect x="8" y="2" width="3" height="18" fill="#30401d" opacity="0.45"/></g><g id="k-oak" aria-hidden="true"><rect x="10" y="22" width="5" height="12" fill="#5a3d24"/><rect x="2" y="10" width="20" height="14" fill="#653e1e"/><rect x="6" y="4" width="12" height="10" fill="#6c5126"/><rect x="2" y="10" width="6" height="14" fill="#30401d" opacity="0.5"/><rect x="11" y="6" width="3" height="6" fill="#6c5126"/></g><g id="k-bare" aria-hidden="true"><rect x="11" y="14" width="3" height="20" fill="#4c3826"/><rect x="4" y="8" width="8" height="3" fill="#4c3826"/><rect x="13" y="4" width="8" height="3" fill="#4c3826"/><rect x="9" y="18" width="6" height="3" fill="#4c3826"/></g><g id="k-bush" aria-hidden="true"><rect x="0" y="4" width="14" height="8" fill="#653e1e"/><rect x="3" y="1" width="8" height="6" fill="#6c5126"/><rect x="0" y="4" width="4" height="8" fill="#30401d" opacity="0.5"/></g><g id="k-rock" aria-hidden="true"><polygon points="0,10 4,2 12,0 16,8 12,12 2,12" fill="#9aa0a8"/><polygon points="4,2 12,0 10,5 5,6" fill="#c3c9d1"/></g><g id="k-tuft" aria-hidden="true"><rect x="0" y="2" width="2" height="5" fill="#30401d"/><rect x="3" y="0" width="2" height="7" fill="#30401d"/><rect x="6" y="3" width="2" height="4" fill="#30401d"/></g><g id="k-flower" aria-hidden="true"><rect x="3" y="4" width="2" height="7" fill="#30401d"/><rect x="1" y="0" width="3" height="3" fill="#e07b3c"/><rect x="4" y="1" width="3" height="3" fill="#e07b3c"/><rect x="2" y="3" width="4" height="2" fill="#ffffff" opacity="0.7"/></g><g id="k-fence" aria-hidden="true"><rect x="0" y="0" width="4" height="12" fill="#66401f"/><rect x="28" y="0" width="4" height="12" fill="#66401f"/><rect x="0" y="2" width="32" height="3" fill="#8a5a33"/><rect x="0" y="7" width="32" height="3" fill="#8a5a33"/></g><g id="k-lamp" aria-hidden="true"><rect x="4" y="8" width="3" height="20" fill="#3a3f4a"/><rect x="1" y="0" width="9" height="9" fill="#20242e"/><rect x="3" y="2" width="5" height="5" fill="#f7d774" class="k-lampglass"/><rect x="0" y="8" width="11" height="2" fill="#3a3f4a"/></g></defs><rect x="1100" y="1240" width="700" height="125" fill="url(#k-sky)"/><circle cx="1141" cy="1253" r="2" fill="#dfe8fa" opacity="0.5"/><circle cx="1314" cy="1247" r="1" fill="#dfe8fa" opacity="0.7"/><circle cx="1487" cy="1241" r="1" fill="#dfe8fa" opacity="0.9"/><circle cx="1660" cy="1338" r="1" fill="#dfe8fa" opacity="0.5"/><circle cx="1133" cy="1332" r="1" fill="#dfe8fa" opacity="0.7"/><circle cx="1306" cy="1326" r="2" fill="#dfe8fa" opacity="0.9"/><circle cx="1479" cy="1320" r="1" fill="#dfe8fa" opacity="0.5"/><circle cx="1652" cy="1314" r="1" fill="#dfe8fa" opacity="0.7"/><circle cx="1125" cy="1308" r="1" fill="#dfe8fa" opacity="0.9"/><circle cx="1298" cy="1302" r="1" fill="#dfe8fa" opacity="0.5"/><circle cx="1471" cy="1296" r="2" fill="#dfe8fa" opacity="0.7"/><circle cx="1644" cy="1290" r="1" fill="#dfe8fa" opacity="0.9"/><circle cx="1117" cy="1284" r="1" fill="#dfe8fa" opacity="0.5"/><circle cx="1290" cy="1278" r="1" fill="#dfe8fa" opacity="0.7"/><circle cx="1463" cy="1272" r="1" fill="#dfe8fa" opacity="0.9"/><circle cx="1636" cy="1266" r="2" fill="#dfe8fa" opacity="0.5"/><circle cx="1109" cy="1260" r="1" fill="#dfe8fa" opacity="0.7"/><circle cx="1282" cy="1254" r="1" fill="#dfe8fa" opacity="0.9"/><circle cx="1455" cy="1248" r="1" fill="#dfe8fa" opacity="0.5"/><circle cx="1628" cy="1242" r="1" fill="#dfe8fa" opacity="0.7"/><circle cx="1101" cy="1339" r="2" fill="#dfe8fa" opacity="0.9"/><circle cx="1274" cy="1333" r="1" fill="#dfe8fa" opacity="0.5"/><rect x="0" y="0" width="2048" height="1536" fill="url(#k-grass)"/><ellipse cx="151" cy="298" rx="97" ry="93" fill="#6c5126" opacity="0.28"/><ellipse cx="794" cy="1427" rx="161" ry="50" fill="#30401d" opacity="0.28"/><ellipse cx="1437" cy="1415" rx="171" ry="106" fill="#6c5126" opacity="0.28"/><ellipse cx="834" cy="673" rx="168" ry="80" fill="#6c5126" opacity="0.28"/><ellipse cx="1054" cy="925" rx="133" ry="102" fill="#30401d" opacity="0.28"/><ellipse cx="1065" cy="941" rx="82" ry="56" fill="#6c5126" opacity="0.28"/><ellipse cx="129" cy="1468" rx="97" ry="94" fill="#30401d" opacity="0.28"/><ellipse cx="1095" cy="1307" rx="176" ry="108" fill="#6c5126" opacity="0.28"/><ellipse cx="408" cy="647" rx="117" ry="82" fill="#6c5126" opacity="0.28"/><ellipse cx="1265" cy="861" rx="123" ry="106" fill="#30401d" opacity="0.28"/><ellipse cx="326" cy="720" rx="157" ry="58" fill="#6c5126" opacity="0.28"/><ellipse cx="1685" cy="814" rx="101" ry="93" fill="#6c5126" opacity="0.28"/><ellipse cx="756" cy="610" rx="170" ry="56" fill="#30401d" opacity="0.28"/><ellipse cx="1416" cy="365" rx="132" ry="99" fill="#6c5126" opacity="0.28"/><ellipse cx="1118" cy="222" rx="83" ry="56" fill="#6c5126" opacity="0.28"/><ellipse cx="2031" cy="764" rx="94" ry="45" fill="#30401d" opacity="0.28"/><ellipse cx="815" cy="1096" rx="123" ry="105" fill="#6c5126" opacity="0.28"/><ellipse cx="2025" cy="210" rx="106" ry="46" fill="#6c5126" opacity="0.28"/><ellipse cx="1265" cy="572" rx="117" ry="74" fill="#30401d" opacity="0.28"/><ellipse cx="888" cy="592" rx="142" ry="81" fill="#6c5126" opacity="0.28"/><ellipse cx="1671" cy="783" rx="180" ry="92" fill="#6c5126" opacity="0.28"/><ellipse cx="90" cy="758" rx="181" ry="80" fill="#30401d" opacity="0.28"/><ellipse cx="754" cy="913" rx="143" ry="49" fill="#6c5126" opacity="0.28"/><ellipse cx="1864" cy="616" rx="160" ry="44" fill="#6c5126" opacity="0.28"/><ellipse cx="1204" cy="1440" rx="180" ry="82" fill="#30401d" opacity="0.28"/><ellipse cx="1136" cy="758" rx="164" ry="43" fill="#6c5126" opacity="0.28"/><ellipse cx="760" cy="451" rx="166" ry="95" fill="#30401d" opacity="0.28"/><ellipse cx="1594" cy="1194" rx="150" ry="93" fill="#6c5126" opacity="0.28"/><ellipse cx="1063" cy="676" rx="131" ry="87" fill="#6c5126" opacity="0.28"/><ellipse cx="656" cy="1104" rx="122" ry="42" fill="#30401d" opacity="0.28"/><ellipse cx="1565" cy="469" rx="113" ry="84" fill="#6c5126" opacity="0.28"/><ellipse cx="54" cy="1481" rx="171" ry="40" fill="#6c5126" opacity="0.28"/><ellipse cx="2022" cy="1388" rx="76" ry="82" fill="#30401d" opacity="0.28"/><ellipse cx="1793" cy="1430" rx="95" ry="71" fill="#6c5126" opacity="0.28"/><ellipse cx="886" cy="324" rx="170" ry="49" fill="#6c5126" opacity="0.28"/><ellipse cx="1747" cy="1069" rx="97" ry="74" fill="#30401d" opacity="0.28"/><ellipse cx="1696" cy="232" rx="180" ry="74" fill="#6c5126" opacity="0.28"/><ellipse cx="1915" cy="650" rx="147" ry="89" fill="#6c5126" opacity="0.28"/><ellipse cx="88" cy="661" rx="186" ry="47" fill="#30401d" opacity="0.28"/><ellipse cx="859" cy="469" rx="178" ry="45" fill="#6c5126" opacity="0.28"/><ellipse cx="456" cy="1278" rx="124" ry="82" fill="#6c5126" opacity="0.28"/><ellipse cx="491" cy="265" rx="145" ry="94" fill="#30401d" opacity="0.28"/><ellipse cx="612" cy="1149" rx="88" ry="53" fill="#6c5126" opacity="0.28"/><ellipse cx="1093" cy="1316" rx="188" ry="67" fill="#6c5126" opacity="0.28"/><ellipse cx="622" cy="359" rx="128" ry="47" fill="#30401d" opacity="0.28"/><ellipse cx="1705" cy="865" rx="188" ry="92" fill="#6c5126" opacity="0.28"/><ellipse cx="1819" cy="496" rx="96" ry="51" fill="#6c5126" opacity="0.28"/><ellipse cx="627" cy="997" rx="75" ry="68" fill="#30401d" opacity="0.28"/><ellipse cx="16" cy="851" rx="150" ry="81" fill="#6c5126" opacity="0.28"/><ellipse cx="1634" cy="443" rx="103" ry="65" fill="#6c5126" opacity="0.28"/><use href="#k-bush" x="1106" y="1165"/><use href="#k-tuft" x="1188" y="1171"/><use href="#k-tuft" x="1659" y="1176"/><use href="#k-flower" x="1661" y="1179"/><use href="#k-rock" x="1334" y="1184"/><use href="#k-tuft" x="1842" y="1190"/><use href="#k-bush" x="1490" y="1189"/><use href="#k-flower" x="1412" y="1201"/><use href="#k-rock" x="1415" y="1205"/><use href="#k-flower" x="1806" y="1213"/><use href="#k-bush" x="1674" y="1213"/><use href="#k-tuft" x="1697" y="1226"/><polygon points="-1,1232 1663,1296 1665,1232 1,1168" fill="url(#k-waterg)"/><polygon points="1634,1276 1698,1436 1758,1412 1694,1252" fill="url(#k-waterg)"/><rect x="1568" y="1424" width="224" height="112" fill="url(#k-waterg)"/><polyline points="-2,1240 1662,1304" fill="none" stroke="#453623" stroke-width="10" opacity="0.8"/><polyline points="2,1160 1666,1224" fill="none" stroke="#453623" stroke-width="10" opacity="0.8"/><polyline points="1627,1279 1691,1439" fill="none" stroke="#453623" stroke-width="10" opacity="0.8"/><polyline points="1701,1249 1765,1409" fill="none" stroke="#453623" stroke-width="10" opacity="0.8"/><rect x="1574" y="1426" width="14" height="3" fill="#d5ecf7" opacity="0.7"/><rect x="1605" y="1428" width="14" height="3" fill="#d5ecf7" opacity="0.7"/><rect x="1627" y="1427" width="14" height="3" fill="#d5ecf7" opacity="0.7"/><rect x="1650" y="1428" width="14" height="3" fill="#d5ecf7" opacity="0.7"/><rect x="1680" y="1424" width="14" height="3" fill="#d5ecf7" opacity="0.7"/><rect x="1710" y="1428" width="14" height="3" fill="#d5ecf7" opacity="0.7"/><rect x="1736" y="1427" width="14" height="3" fill="#d5ecf7" opacity="0.7"/><rect x="1760" y="1427" width="14" height="3" fill="#d5ecf7" opacity="0.7"/><rect x="1567" y="1439" width="3" height="14" fill="#d5ecf7" opacity="0.7"/><rect x="1567" y="1463" width="3" height="14" fill="#d5ecf7" opacity="0.7"/><rect x="1567" y="1490" width="3" height="14" fill="#d5ecf7" opacity="0.7"/><rect x="1569" y="1511" width="3" height="14" fill="#d5ecf7" opacity="0.7"/><use href="#k-tuft" x="1744" y="1277"/><use href="#k-tuft" x="1271" y="1286"/><use href="#k-flower" x="1508" y="1285"/><use href="#k-tuft" x="1554" y="1289"/><use href="#k-tuft" x="1336" y="1292"/><use href="#k-flower" x="1865" y="1295"/><use href="#k-tuft" x="1586" y="1300"/><use href="#k-tuft" x="1824" y="1301"/><use href="#k-oak" x="1220" y="1280"/><use href="#k-tuft" x="1079" y="1317"/><use href="#k-tuft" x="1146" y="1321"/><use href="#k-tuft" x="1392" y="1322"/><use href="#k-oak" x="1367" y="1296"/><use href="#k-oak" x="1231" y="1298"/><use href="#k-oak" x="1267" y="1302"/><use href="#k-tuft" x="1824" y="1335"/><use href="#k-oak" x="1360" y="1309"/><use href="#k-tuft" x="1241" y="1346"/><use href="#k-tuft" x="1100" y="1350"/><use href="#k-flower" x="1450" y="1346"/><use href="#k-oak" x="1347" y="1324"/><use href="#k-oak" x="1375" y="1326"/><use href="#k-tuft" x="1228" y="1357"/><use href="#k-flower" x="1854" y="1356"/><use href="#k-oak" x="1163" y="1352"/><use href="#k-tuft" x="1257" y="1383"/><use href="#k-tuft" x="1366" y="1388"/><use href="#k-tuft" x="1168" y="1390"/><use href="#k-tuft" x="1068" y="1392"/><use href="#k-tuft" x="1396" y="1401"/><use href="#k-oak" x="1199" y="1385"/><use href="#k-oak" x="1236" y="1386"/><use href="#k-tuft" x="1411" y="1417"/><use href="#k-tuft" x="1475" y="1421"/><use href="#k-tuft" x="1095" y="1438"/><use href="#k-tuft" x="1549" y="1439"/><use href="#k-tuft" x="1528" y="1442"/><use href="#k-tuft" x="1103" y="1443"/><use href="#k-flower" x="1114" y="1445"/><use href="#k-tuft" x="1246" y="1455"/><use href="#k-tuft" x="1828" y="1455"/><use href="#k-tuft" x="1796" y="1466"/><use href="#k-tuft" x="1339" y="1475"/><use href="#k-tuft" x="1318" y="1504"/><use href="#k-bush" x="1446" y="1505"/><use href="#k-flower" x="1832" y="1518"/><use href="#k-flower" x="1263" y="1520"/><rect x="896" y="1328" width="256" height="208" fill="none" stroke="#ffffff" stroke-width="2" stroke-dasharray="10 8" opacity="0.25"/><polyline points="0,0 0,0 0,0 0,0" fill="none" stroke="#3f362a" stroke-width="40" stroke-linejoin="round" stroke-linecap="round"/><polyline points="0,0 0,0 0,0 0,0" fill="none" stroke="#7a6a52" stroke-width="32" stroke-linejoin="round" stroke-linecap="round"/><polyline points="0,0 0,0 0,0 0,0" fill="none" stroke="url(#k-cobble)" stroke-width="28" stroke-linejoin="round" stroke-linecap="round"/><polyline points="0,0 0,0 0,0 0,0" fill="none" stroke="#a89a80" stroke-width="3" stroke-linejoin="round" opacity="0.5"/><polyline points="0,0 0,0 0,0" fill="none" stroke="#3f362a" stroke-width="60" stroke-linejoin="round" stroke-linecap="round"/><polyline points="0,0 0,0 0,0" fill="none" stroke="#7a6a52" stroke-width="52" stroke-linejoin="round" stroke-linecap="round"/><polyline points="0,0 0,0 0,0" fill="none" stroke="url(#k-cobble)" stroke-width="48" stroke-linejoin="round" stroke-linecap="round"/><polyline points="0,0 0,0 0,0" fill="none" stroke="#c9bfa8" stroke-width="5" stroke-linejoin="round" opacity="0.65"/><polyline points="0,0 0,0 0,0" fill="none" stroke="#5a4f3e" stroke-width="2" stroke-linejoin="round" opacity="0.5" stroke-dasharray="2 26"/><rect x="1002" y="1184" width="44" height="96" fill="#66401f"/><rect x="1004" y="1188" width="40" height="7" fill="#8a5a33"/><rect x="1004" y="1199" width="40" height="7" fill="#8a5a33"/><rect x="1004" y="1210" width="40" height="7" fill="#8a5a33"/><rect x="1004" y="1221" width="40" height="7" fill="#8a5a33"/><rect x="1004" y="1232" width="40" height="7" fill="#8a5a33"/><rect x="1004" y="1243" width="40" height="7" fill="#8a5a33"/><rect x="1004" y="1254" width="40" height="7" fill="#8a5a33"/><rect x="1004" y="1265" width="40" height="7" fill="#8a5a33"/><rect x="998" y="1184" width="4" height="96" fill="#66401f"/><rect x="1046" y="1184" width="4" height="96" fill="#66401f"/><ellipse cx="1024" cy="1280" rx="26" ry="6" fill="#0a0e1a" opacity="0.35"/><polyline points="0,0 0,0 0,0" fill="none" stroke="#3f362a" stroke-width="60" stroke-linejoin="round" stroke-linecap="round"/><polyline points="0,0 0,0 0,0" fill="none" stroke="#7a6a52" stroke-width="52" stroke-linejoin="round" stroke-linecap="round"/><polyline points="0,0 0,0 0,0" fill="none" stroke="url(#k-cobble)" stroke-width="48" stroke-linejoin="round" stroke-linecap="round"/><polyline points="0,0 0,0 0,0" fill="none" stroke="#c9bfa8" stroke-width="5" stroke-linejoin="round" opacity="0.65"/><polyline points="0,0 0,0 0,0" fill="none" stroke="#5a4f3e" stroke-width="2" stroke-linejoin="round" opacity="0.5" stroke-dasharray="2 26"/><polyline points="0,0 0,0 0,0" fill="none" stroke="#3f362a" stroke-width="60" stroke-linejoin="round" stroke-linecap="round"/><polyline points="0,0 0,0 0,0" fill="none" stroke="#7a6a52" stroke-width="52" stroke-linejoin="round" stroke-linecap="round"/><polyline points="0,0 0,0 0,0" fill="none" stroke="url(#k-cobble)" stroke-width="48" stroke-linejoin="round" stroke-linecap="round"/><polyline points="0,0 0,0 0,0" fill="none" stroke="#c9bfa8" stroke-width="5" stroke-linejoin="round" opacity="0.65"/><polyline points="0,0 0,0 0,0" fill="none" stroke="#5a4f3e" stroke-width="2" stroke-linejoin="round" opacity="0.5" stroke-dasharray="2 26"/><polyline points="0,0 0,0 0,0 0,0" fill="none" stroke="#3f362a" stroke-width="60" stroke-linejoin="round" stroke-linecap="round"/><polyline points="0,0 0,0 0,0 0,0" fill="none" stroke="#7a6a52" stroke-width="52" stroke-linejoin="round" stroke-linecap="round"/><polyline points="0,0 0,0 0,0 0,0" fill="none" stroke="url(#k-cobble)" stroke-width="48" stroke-linejoin="round" stroke-linecap="round"/><polyline points="0,0 0,0 0,0 0,0" fill="none" stroke="#c9bfa8" stroke-width="5" stroke-linejoin="round" opacity="0.65"/><polyline points="0,0 0,0 0,0 0,0" fill="none" stroke="#5a4f3e" stroke-width="2" stroke-linejoin="round" opacity="0.5" stroke-dasharray="2 26"/><ellipse cx="1295" cy="1441" rx="44" ry="20" fill="url(#k-lampg)"/><use href="#k-lamp" x="1290" y="1413"/><circle cx="1295" cy="1419" r="16" fill="url(#k-lampg)"/><ellipse cx="1599" cy="1398" rx="44" ry="20" fill="url(#k-lampg)"/><use href="#k-lamp" x="1594" y="1370"/><circle cx="1599" cy="1376" r="16" fill="url(#k-lampg)"/><circle cx="1500" cy="368" r="6" fill="#6e5f4a" stroke="#3f362a" stroke-width="2"/><circle cx="1496" cy="560" r="6" fill="#6e5f4a" stroke="#3f362a" stroke-width="2"/><circle cx="1040" cy="1120" r="6" fill="#6e5f4a" stroke="#3f362a" stroke-width="2"/><circle cx="1024" cy="864" r="6" fill="#6e5f4a" stroke="#3f362a" stroke-width="2"/><circle cx="1216" cy="1000" r="6" fill="#6e5f4a" stroke="#3f362a" stroke-width="2"/><circle cx="1936" cy="1424" r="6" fill="#6e5f4a" stroke="#3f362a" stroke-width="2"/><circle cx="1312" cy="656" r="6" fill="#6e5f4a" stroke="#3f362a" stroke-width="2"/><circle cx="480" cy="1232" r="6" fill="#6e5f4a" stroke="#3f362a" stroke-width="2"/><circle cx="288" cy="1290" r="6" fill="#6e5f4a" stroke="#3f362a" stroke-width="2"/><circle cx="1728" cy="224" r="6" fill="#6e5f4a" stroke="#3f362a" stroke-width="2"/><circle cx="1168" cy="688" r="6" fill="#6e5f4a" stroke="#3f362a" stroke-width="2"/><circle cx="1696" cy="1440" r="6" fill="#6e5f4a" stroke="#3f362a" stroke-width="2"/><circle cx="1184" cy="1360" r="6" fill="#6e5f4a" stroke="#3f362a" stroke-width="2"/><circle cx="688" cy="1056" r="6" fill="#6e5f4a" stroke="#3f362a" stroke-width="2"/><circle cx="192" cy="320" r="6" fill="#6e5f4a" stroke="#3f362a" stroke-width="2"/><circle cx="288" cy="1060" r="6" fill="#6e5f4a" stroke="#3f362a" stroke-width="2"/><circle cx="1024" cy="1232" r="6" fill="#6e5f4a" stroke="#3f362a" stroke-width="2"/><circle cx="1056" cy="944" r="6" fill="#6e5f4a" stroke="#3f362a" stroke-width="2"/><circle cx="600" cy="1300" r="6" fill="#6e5f4a" stroke="#3f362a" stroke-width="2"/><circle cx="1088" cy="288" r="6" fill="#6e5f4a" stroke="#3f362a" stroke-width="2"/><circle cx="352" cy="464" r="6" fill="#6e5f4a" stroke="#3f362a" stroke-width="2"/><circle cx="712" cy="1232" r="6" fill="#6e5f4a" stroke="#3f362a" stroke-width="2"/><circle cx="736" cy="1300" r="6" fill="#6e5f4a" stroke="#3f362a" stroke-width="2"/><circle cx="1600" cy="864" r="6" fill="#6e5f4a" stroke="#3f362a" stroke-width="2"/><circle cx="400" cy="736" r="6" fill="#6e5f4a" stroke="#3f362a" stroke-width="2"/><circle cx="1024" cy="720" r="6" fill="#6e5f4a" stroke="#3f362a" stroke-width="2"/><circle cx="1936" cy="1192" r="6" fill="#6e5f4a" stroke="#3f362a" stroke-width="2"/><circle cx="384" cy="272" r="6" fill="#6e5f4a" stroke="#3f362a" stroke-width="2"/><circle cx="1376" cy="1416" r="6" fill="#6e5f4a" stroke="#3f362a" stroke-width="2"/><circle cx="1760" cy="400" r="6" fill="#6e5f4a" stroke="#3f362a" stroke-width="2"/><circle cx="1424" cy="1128" r="6" fill="#6e5f4a" stroke="#3f362a" stroke-width="2"/><circle cx="1700" cy="320" r="6" fill="#6e5f4a" stroke="#3f362a" stroke-width="2"/><circle cx="736" cy="656" r="6" fill="#6e5f4a" stroke="#3f362a" stroke-width="2"/><circle cx="1544" cy="1104" r="6" fill="#6e5f4a" stroke="#3f362a" stroke-width="2"/><ellipse cx="1650" cy="1323" rx="50" ry="8" fill="#0a0e1a" opacity="0.35"/><polygon points="1690,1264 1702,1256 1702,1313 1690,1321" fill="#373228"/><rect x="1610" y="1264" width="80" height="57" fill="#4d4538"/><rect x="1610" y="1315" width="80" height="6" fill="#3e372d"/><polygon points="1604,1264 1650,1240 1696,1264 1708,1256 1662,1232 1616,1256" fill="#363128"/><rect x="1623" y="1278" width="9" height="12" fill="#ffca6a" stroke="#3a3f4a" stroke-width="1.5"/><circle cx="1628" cy="1284" r="15" fill="url(#k-lampg)"/><rect x="1646" y="1278" width="9" height="12" fill="#ffca6a" stroke="#3a3f4a" stroke-width="1.5"/><circle cx="1650" cy="1284" r="15" fill="url(#k-lampg)"/><rect x="1668" y="1278" width="9" height="12" fill="#ffca6a" stroke="#3a3f4a" stroke-width="1.5"/><circle cx="1672" cy="1284" r="15" fill="url(#k-lampg)"/><rect x="1641" y="1295" width="18" height="26" fill="#4a3220" stroke="#2e2013" stroke-width="1.5"/><ellipse cx="1650" cy="1325" rx="50" ry="10" fill="url(#k-lampg)"/><rect x="1682" y="1220" width="5" height="44" fill="#66401f"/><line x1="1682" y1="1220" x2="1712" y2="1234" stroke="#66401f" stroke-width="4"/><line x1="1712" y1="1234" x2="1712" y2="1252" stroke="#3a3f4a" stroke-width="2"/><rect x="1706" y="1252" width="12" height="10" fill="#8a5a33"/><ellipse cx="1555" cy="1324" rx="50" ry="8" fill="#0a0e1a" opacity="0.35"/><polygon points="1595,1257 1607,1248 1607,1314 1595,1322" fill="#373228"/><rect x="1515" y="1257" width="80" height="65" fill="#4d4538"/><rect x="1515" y="1316" width="80" height="6" fill="#3e372d"/><polygon points="1509,1257 1555,1233 1601,1257 1613,1248 1567,1224 1521,1248" fill="#363128"/><rect x="1528" y="1271" width="9" height="12" fill="#ffca6a" stroke="#3a3f4a" stroke-width="1.5"/><circle cx="1533" cy="1277" r="15" fill="url(#k-lampg)"/><rect x="1551" y="1271" width="9" height="12" fill="#ffca6a" stroke="#3a3f4a" stroke-width="1.5"/><circle cx="1555" cy="1277" r="15" fill="url(#k-lampg)"/><rect x="1573" y="1271" width="9" height="12" fill="#ffca6a" stroke="#3a3f4a" stroke-width="1.5"/><circle cx="1577" cy="1277" r="15" fill="url(#k-lampg)"/><rect x="1546" y="1296" width="18" height="26" fill="#4a3220" stroke="#2e2013" stroke-width="1.5"/><ellipse cx="1555" cy="1326" rx="50" ry="10" fill="url(#k-lampg)"/><rect x="1587" y="1213" width="5" height="44" fill="#66401f"/><line x1="1587" y1="1213" x2="1617" y2="1227" stroke="#66401f" stroke-width="4"/><line x1="1617" y1="1227" x2="1617" y2="1245" stroke="#3a3f4a" stroke-width="2"/><rect x="1611" y="1245" width="12" height="10" fill="#8a5a33"/><rect x="1670" y="1418" width="5" height="26" fill="#66401f"/><rect x="1688" y="1418" width="5" height="26" fill="#66401f"/><rect x="1706" y="1418" width="5" height="26" fill="#66401f"/><rect x="1724" y="1418" width="5" height="26" fill="#66401f"/><rect x="1664" y="1410" width="64" height="10" fill="#8a5a33"/><rect x="1664" y="1410" width="64" height="3" fill="#ab7a45"/><line x1="1668" y1="1410" x2="1668" y2="1420" stroke="#66401f" stroke-width="2"/><line x1="1680" y1="1410" x2="1680" y2="1420" stroke="#66401f" stroke-width="2"/><line x1="1692" y1="1410" x2="1692" y2="1420" stroke="#66401f" stroke-width="2"/><line x1="1704" y1="1410" x2="1704" y2="1420" stroke="#66401f" stroke-width="2"/><line x1="1716" y1="1410" x2="1716" y2="1420" stroke="#66401f" stroke-width="2"/><polygon points="1680,1446 1716,1446 1708,1458 1688,1458" fill="#66401f"/><rect x="1696" y="1426" width="3" height="22" fill="#66401f"/><polygon points="1699,1426 1714,1440 1699,1440" fill="#e8dcc0"/><ellipse cx="1462" cy="1459" rx="20" ry="4" fill="#0a0e1a" opacity="0.35"/><polygon points="1478,1439 1484,1435 1484,1453 1478,1457" fill="#4e493b"/><rect x="1446" y="1439" width="32" height="18" fill="#6c6652"/><rect x="1446" y="1451" width="32" height="6" fill="#565242"/><polygon points="1446,1445 1462,1423 1478,1445" fill="#5b4d35"/><polygon points="1462,1423 1478,1445 1470,1445" fill="#493e2a"/><ellipse cx="1462" cy="1461" rx="20" ry="10" fill="url(#k-lampg)"/><polygon points="1452,1435 1466,1439 1452,1447" fill="#f28bb4"/><rect x="1451" y="1427" width="2" height="10" fill="#66401f"/><circle cx="1452" cy="1453" r="3" fill="#f28bb4"/><circle cx="1464" cy="1453" r="3" fill="#f28bb4"/><ellipse cx="1194" cy="1460" rx="20" ry="4" fill="#0a0e1a" opacity="0.35"/><polygon points="1210,1438 1216,1434 1216,1454 1210,1458" fill="#4e493b"/><rect x="1178" y="1438" width="32" height="20" fill="#6c6652"/><rect x="1178" y="1452" width="32" height="6" fill="#565242"/><polygon points="1178,1444 1194,1422 1210,1444" fill="#5b4d35"/><polygon points="1194,1422 1210,1444 1202,1444" fill="#493e2a"/><ellipse cx="1194" cy="1462" rx="20" ry="10" fill="url(#k-lampg)"/><ellipse cx="1371" cy="1463" rx="20" ry="4" fill="#0a0e1a" opacity="0.35"/><polygon points="1387,1443 1393,1439 1393,1457 1387,1461" fill="#4e493b"/><rect x="1355" y="1443" width="32" height="18" fill="#6c6652"/><rect x="1355" y="1455" width="32" height="6" fill="#565242"/><polygon points="1355,1449 1371,1427 1387,1449" fill="#5b4d35"/><polygon points="1371,1427 1387,1449 1379,1449" fill="#493e2a"/><ellipse cx="1371" cy="1465" rx="20" ry="10" fill="url(#k-lampg)"/><ellipse cx="1283" cy="1464" rx="20" ry="4" fill="#0a0e1a" opacity="0.35"/><polygon points="1299,1444 1305,1440 1305,1458 1299,1462" fill="#3d3222"/><rect x="1267" y="1444" width="32" height="18" fill="#55452f"/><rect x="1267" y="1456" width="32" height="6" fill="#443726"/><rect x="1267" y="1434" width="16" height="10" fill="#653625"/><rect x="1283" y="1434" width="16" height="10" fill="#e8dcc0"/><rect x="1267" y="1432" width="32" height="3" fill="#512b1e"/><rect x="1279" y="1458" width="9" height="12" fill="#ffca6a" stroke="#3a3f4a" stroke-width="1.5"/><circle cx="1283" cy="1464" r="15" fill="url(#k-lampg)"/><rect x="1279" y="1436" width="7" height="26" fill="#4a3220" stroke="#2e2013" stroke-width="1.5"/><ellipse cx="1283" cy="1466" rx="20" ry="10" fill="url(#k-lampg)"/><rect x="1269" y="1462" width="28" height="8" fill="#66401f"/><rect x="1271" y="1472" width="11" height="9" fill="#452d1a"/><rect x="1271" y="1472" width="11" height="2" fill="#372313"/><circle cx="1276" cy="1470" r="4" fill="#c94f4f"/><rect x="1284" y="1472" width="11" height="9" fill="#452d1a"/><rect x="1284" y="1472" width="11" height="2" fill="#372313"/><circle cx="1289" cy="1470" r="4" fill="#4f9be0"/><rect x="1297" y="1472" width="11" height="9" fill="#452d1a"/><rect x="1297" y="1472" width="11" height="2" fill="#372313"/><circle cx="1302" cy="1470" r="4" fill="#d8a24b"/><ellipse cx="1554" cy="1464" rx="20" ry="4" fill="#0a0e1a" opacity="0.35"/><polygon points="1570,1444 1576,1440 1576,1458 1570,1462" fill="#3d3222"/><rect x="1538" y="1444" width="32" height="18" fill="#55452f"/><rect x="1538" y="1456" width="32" height="6" fill="#443726"/><rect x="1538" y="1434" width="16" height="10" fill="#653625"/><rect x="1554" y="1434" width="16" height="10" fill="#e8dcc0"/><rect x="1538" y="1432" width="32" height="3" fill="#512b1e"/><rect x="1550" y="1458" width="9" height="12" fill="#ffca6a" stroke="#3a3f4a" stroke-width="1.5"/><circle cx="1554" cy="1464" r="15" fill="url(#k-lampg)"/><rect x="1550" y="1436" width="7" height="26" fill="#4a3220" stroke="#2e2013" stroke-width="1.5"/><ellipse cx="1554" cy="1466" rx="20" ry="10" fill="url(#k-lampg)"/><rect x="1540" y="1462" width="28" height="8" fill="#66401f"/><rect x="1542" y="1472" width="11" height="9" fill="#452d1a"/><rect x="1542" y="1472" width="11" height="2" fill="#372313"/><circle cx="1547" cy="1470" r="4" fill="#8fd07a"/><rect x="1555" y="1472" width="11" height="9" fill="#452d1a"/><rect x="1555" y="1472" width="11" height="2" fill="#372313"/><circle cx="1560" cy="1470" r="4" fill="#8fd07a"/><rect x="1568" y="1472" width="11" height="9" fill="#452d1a"/><rect x="1568" y="1472" width="11" height="2" fill="#372313"/><circle cx="1573" cy="1470" r="4" fill="#8fd07a"/><polygon points="1544,1440 1558,1444 1544,1452" fill="#f28bb4"/><rect x="1543" y="1432" width="2" height="10" fill="#66401f"/><circle cx="1544" cy="1458" r="3" fill="#f28bb4"/><circle cx="1556" cy="1458" r="3" fill="#f28bb4"/><ellipse cx="1024" cy="1233" rx="7" ry="3" fill="#0a0e1a" opacity="0.3"/><rect x="1020" y="1227" width="4" height="5" fill="#4a4232"/><rect x="1025" y="1227" width="4" height="5" fill="#4a4232"/><rect x="1020" y="1216" width="9" height="11" fill="#7a6a4a"/><rect x="1020" y="1216" width="3" height="11" fill="#000000" opacity="0.18"/><rect x="1020" y="1213" width="8" height="8" fill="#c08858"/><polygon points="1017,1217 1018,1207 1030,1207 1031,1217" fill="#3a3f4a"/><rect x="1021" y="1212" width="8" height="12" fill="#6b4f2c"/><ellipse cx="1067" cy="1271" rx="7" ry="3" fill="#0a0e1a" opacity="0.3"/><rect x="1063" y="1265" width="4" height="5" fill="#5a4a3a"/><rect x="1068" y="1265" width="4" height="5" fill="#5a4a3a"/><rect x="1063" y="1254" width="9" height="11" fill="#c98a4a"/><rect x="1063" y="1254" width="3" height="11" fill="#000000" opacity="0.18"/><rect x="1063" y="1251" width="8" height="8" fill="#e8b88a"/><rect x="1055" y="1250" width="8" height="12" fill="#6b4f2c"/><ellipse cx="1195" cy="1363" rx="7" ry="3" fill="#0a0e1a" opacity="0.3"/><rect x="1191" y="1357" width="4" height="5" fill="#3d2e44"/><rect x="1196" y="1357" width="4" height="5" fill="#3d2e44"/><rect x="1191" y="1346" width="9" height="11" fill="#7a4a8a"/><rect x="1191" y="1346" width="3" height="11" fill="#000000" opacity="0.18"/><rect x="1191" y="1343" width="8" height="8" fill="#c08858"/><circle cx="1195" cy="1342" r="6" fill="#e8dcc0"/><circle cx="1198" cy="1339" r="2" fill="#c94f4f"/><circle cx="1204" cy="1352" r="6" fill="#8a5a33"/><line x1="1200" y1="1350" x2="1204" y2="1348" stroke="#5a3d24" stroke-width="2"/><ellipse cx="1342" cy="1383" rx="7" ry="3" fill="#0a0e1a" opacity="0.3"/><rect x="1338" y="1377" width="4" height="5" fill="#5a4a3a"/><rect x="1343" y="1377" width="4" height="5" fill="#5a4a3a"/><rect x="1338" y="1366" width="9" height="11" fill="#c98a4a"/><rect x="1338" y="1366" width="3" height="11" fill="#000000" opacity="0.18"/><rect x="1338" y="1363" width="8" height="8" fill="#a06a42"/><rect x="1330" y="1362" width="8" height="12" fill="#6b4f2c"/><clipPath id="k-clip-harbor"><rect x="1100" y="1240" width="700" height="296"/></clipPath><g clip-path="url(#k-clip-harbor)"></g><g id="k-hud"><g aria-hidden="true"><rect x="1246" y="1248" width="543" height="27" rx="10" fill="#141a26" opacity="0.78"/><text x="1257" y="1266" font-family="monospace" font-size="14" fill="#e8dcc0">Sudipto&#39;s Living Kingdom · night · autumn · clear · town</text></g><g aria-hidden="true"><rect x="1111" y="1501" width="205" height="27" rx="10" fill="#1d2433" opacity="0.8"/><text x="1122" y="1519" font-family="monospace" font-size="14" fill="#bfe0f2">Sudipto Kumar  · idle</text></g></g></svg>