<svg xmlns="http://www.w3.org/2000/svg" xmlns:xlink="http://www.w3.org/1999/xlink" viewBox="0 0 640 320" width="640" height="320" role="img" aria-labelledby="t d" shape-rendering="crispEdges"><title id="t">Kingdom power and quests</title><desc id="d">Kingdom power 75 of 100. 19 stars, 19 day streak, workflows 100%, 22 active repositories. Quests: active hold a 30 day streak; active earn 25 stars; complete ship a release.</desc><style>.fl{animation:fl 1s steps(1) infinite}@keyframes fl{0%{opacity:1}50%{opacity:.5}}.f1{animation:f1 .8s steps(1) infinite}@keyframes f1{0%{opacity:1}50%{opacity:0}}.f2{animation:f2 .8s steps(1) infinite}@keyframes f2{0%{opacity:0}50%{opacity:1}}.tw{animation:tw 2.6s ease-in-out infinite}@keyframes tw{0%,100%{opacity:.2}50%{opacity:1}}.bob{animation:bob .9s steps(1) infinite}@keyframes bob{0%{transform:translateY(0)}50%{transform:translateY(-4px)}}.bob2{animation:bob2 1.6s steps(1) infinite}@keyframes bob2{0%{transform:translateY(0)}50%{transform:translateY(-8px)}}.dr{animation:dr 90s linear infinite}@keyframes dr{from{transform:translateX(-160px)}to{transform:translateX(720px)}}.sm{animation:sm 3.2s linear infinite}@keyframes sm{0%{transform:translateY(0);opacity:0}15%{opacity:.85}100%{transform:translateY(-44px);opacity:0}}.wk{animation:wk var(--t,12s) linear infinite}@keyframes wk{0%,100%{transform:translateX(0)}50%{transform:translateX(var(--dx,48px))}}.wy{animation:wy var(--t,12s) linear infinite}@keyframes wy{0%,100%{transform:translateY(0)}50%{transform:translateY(var(--dy,40px))}}.fc{transform-box:fill-box;transform-origin:center;animation:fc var(--t,12s) steps(1) infinite}@keyframes fc{0%{transform:scaleX(1)}50%{transform:scaleX(-1)}}.rn{animation:rn .8s linear infinite}@keyframes rn{from{transform:translate(0,0)}to{transform:translate(-22px,88px)}}.lt{animation:lt 7s steps(1) infinite}@keyframes lt{0%,90%,94%,100%{opacity:0}91%,95%{opacity:.85}}.zz{animation:zz 3s linear infinite}@keyframes zz{0%{transform:translate(0,0);opacity:0}20%{opacity:1}100%{transform:translate(8px,-24px);opacity:0}}.fw{transform-box:fill-box;transform-origin:center;animation:fw 3s ease-out infinite}@keyframes fw{0%{transform:scale(.1);opacity:1}70%{opacity:1}100%{transform:scale(1.2);opacity:0}}.cf{animation:cf 5s linear infinite}@keyframes cf{from{transform:translateY(-20px)}to{transform:translateY(260px)}}.sw{transform-box:fill-box;transform-origin:50% 100%;animation:sw .9s steps(2) infinite}@keyframes sw{0%{transform:rotate(-35deg)}50%{transform:rotate(30deg)}}@keyframes sp{to{transform:rotate(360deg)}}.pu{animation:pu 3s ease-in-out infinite}@keyframes pu{0%,100%{opacity:.35}50%{opacity:.9}}.fa{animation:fa 9s linear infinite}@keyframes fa{0%{transform:translate(0,-10px)}100%{transform:translate(-36px,320px)}}@media (prefers-reduced-motion:reduce){*{animation:none!important}}</style><path fill="#0e1024" d="M0 0h640v320h-640z"/><path fill="#b07a1c" d="M8 0h624v320h-624zM0 8h640v304h-640z"/><path fill="#14162b" d="M12 4h616v312h-616zM4 12h632v296h-632z"/><path fill="#ffcd75" d="M28 24h4v4h-4zM40 24h8v4h-8zM56 24h4v4h-4zM28 28h8v4h-8zM40 28h8v4h-8zM52 28h8v4h-8zM28 32h32v4h-32zM28 36h4v4h-4zM36 36h16v4h-16zM56 36h4v4h-4zM28 40h32v4h-32z"/><path fill="#b13e53" d="M32 36h4v4h-4zM52 36h4v4h-4z"/><path fill="#e0a030" d="M28 44h32v4h-32z"/><path fill="#0e1024" d="M73 27h3v3h-3zM85 27h3v3h-3zM73 30h3v3h-3zM82 30h3v3h-3zM73 33h3v3h-3zM79 33h3v3h-3zM73 36h6v3h-6zM73 39h3v3h-3zM79 39h3v3h-3zM73 42h3v3h-3zM82 42h3v3h-3zM73 45h3v3h-3zM85 45h3v3h-3zM91 27h15v3h-15zM97 30h3v3h-3zM97 33h3v3h-3zM97 36h3v3h-3zM97 39h3v3h-3zM97 42h3v3h-3zM91 45h15v3h-15zM109 27h3v3h-3zM121 27h3v3h-3zM109 30h6v3h-6zM121 30h3v3h-3zM109 33h3v3h-3zM115 33h3v3h-3zM121 33h3v3h-3zM109 36h3v3h-3zM118 36h6v3h-6zM109 39h3v3h-3zM121 39h3v3h-3zM109 42h3v3h-3zM121 42h3v3h-3zM109 45h3v3h-3zM121 45h3v3h-3zM130 27h12v3h-12zM127 30h3v3h-3zM127 33h3v3h-3zM127 36h3v3h-3zM136 36h6v3h-6zM127 39h3v3h-3zM139 39h3v3h-3zM127 42h3v3h-3zM139 42h3v3h-3zM130 45h9v3h-9zM145 27h12v3h-12zM145 30h3v3h-3zM157 30h3v3h-3zM145 33h3v3h-3zM157 33h3v3h-3zM145 36h3v3h-3zM157 36h3v3h-3zM145 39h3v3h-3zM157 39h3v3h-3zM145 42h3v3h-3zM157 42h3v3h-3zM145 45h12v3h-12zM166 27h9v3h-9zM163 30h3v3h-3zM175 30h3v3h-3zM163 33h3v3h-3zM175 33h3v3h-3zM163 36h3v3h-3zM175 36h3v3h-3zM163 39h3v3h-3zM175 39h3v3h-3zM163 42h3v3h-3zM175 42h3v3h-3zM166 45h9v3h-9zM181 27h3v3h-3zM193 27h3v3h-3zM181 30h6v3h-6zM190 30h6v3h-6zM181 33h3v3h-3zM187 33h3v3h-3zM193 33h3v3h-3zM181 36h3v3h-3zM187 36h3v3h-3zM193 36h3v3h-3zM181 39h3v3h-3zM193 39h3v3h-3zM181 42h3v3h-3zM193 42h3v3h-3zM181 45h3v3h-3zM193 45h3v3h-3zM217 27h12v3h-12zM217 30h3v3h-3zM229 30h3v3h-3zM217 33h3v3h-3zM229 33h3v3h-3zM217 36h12v3h-12zM217 39h3v3h-3zM217 42h3v3h-3zM217 45h3v3h-3zM238 27h9v3h-9zM235 30h3v3h-3zM247 30h3v3h-3zM235 33h3v3h-3zM247 33h3v3h-3zM235 36h3v3h-3zM247 36h3v3h-3zM235 39h3v3h-3zM247 39h3v3h-3zM235 42h3v3h-3zM247 42h3v3h-3zM238 45h9v3h-9zM253 27h3v3h-3zM265 27h3v3h-3zM253 30h3v3h-3zM265 30h3v3h-3zM253 33h3v3h-3zM265 33h3v3h-3zM253 36h3v3h-3zM259 36h3v3h-3zM265 36h3v3h-3zM253 39h3v3h-3zM259 39h3v3h-3zM265 39h3v3h-3zM253 42h6v3h-6zM262 42h6v3h-6zM253 45h3v3h-3zM265 45h3v3h-3zM271 27h15v3h-15zM271 30h3v3h-3zM271 33h3v3h-3zM271 36h12v3h-12zM271 39h3v3h-3zM271 42h3v3h-3zM271 45h15v3h-15zM289 27h12v3h-12zM289 30h3v3h-3zM301 30h3v3h-3zM289 33h3v3h-3zM301 33h3v3h-3zM289 36h12v3h-12zM289 39h3v3h-3zM295 39h3v3h-3zM289 42h3v3h-3zM298 42h3v3h-3zM289 45h3v3h-3zM301 45h3v3h-3z"/><path fill="#ffcd75" d="M72 26h3v3h-3zM84 26h3v3h-3zM72 29h3v3h-3zM81 29h3v3h-3zM72 32h3v3h-3zM78 32h3v3h-3zM72 35h6v3h-6zM72 38h3v3h-3zM78 38h3v3h-3zM72 41h3v3h-3zM81 41h3v3h-3zM72 44h3v3h-3zM84 44h3v3h-3zM90 26h15v3h-15zM96 29h3v3h-3zM96 32h3v3h-3zM96 35h3v3h-3zM96 38h3v3h-3zM96 41h3v3h-3zM90 44h15v3h-15zM108 26h3v3h-3zM120 26h3v3h-3zM108 29h6v3h-6zM120 29h3v3h-3zM108 32h3v3h-3zM114 32h3v3h-3zM120 32h3v3h-3zM108 35h3v3h-3zM117 35h6v3h-6zM108 38h3v3h-3zM120 38h3v3h-3zM108 41h3v3h-3zM120 41h3v3h-3zM108 44h3v3h-3zM120 44h3v3h-3zM129 26h12v3h-12zM126 29h3v3h-3zM126 32h3v3h-3zM126 35h3v3h-3zM135 35h6v3h-6zM126 38h3v3h-3zM138 38h3v3h-3zM126 41h3v3h-3zM138 41h3v3h-3zM129 44h9v3h-9zM144 26h12v3h-12zM144 29h3v3h-3zM156 29h3v3h-3zM144 32h3v3h-3zM156 32h3v3h-3zM144 35h3v3h-3zM156 35h3v3h-3zM144 38h3v3h-3zM156 38h3v3h-3zM144 41h3v3h-3zM156 41h3v3h-3zM144 44h12v3h-12zM165 26h9v3h-9zM162 29h3v3h-3zM174 29h3v3h-3zM162 32h3v3h-3zM174 32h3v3h-3zM162 35h3v3h-3zM174 35h3v3h-3zM162 38h3v3h-3zM174 38h3v3h-3zM162 41h3v3h-3zM174 41h3v3h-3zM165 44h9v3h-9zM180 26h3v3h-3zM192 26h3v3h-3zM180 29h6v3h-6zM189 29h6v3h-6zM180 32h3v3h-3zM186 32h3v3h-3zM192 32h3v3h-3zM180 35h3v3h-3zM186 35h3v3h-3zM192 35h3v3h-3zM180 38h3v3h-3zM192 38h3v3h-3zM180 41h3v3h-3zM192 41h3v3h-3zM180 44h3v3h-3zM192 44h3v3h-3zM216 26h12v3h-12zM216 29h3v3h-3zM228 29h3v3h-3zM216 32h3v3h-3zM228 32h3v3h-3zM216 35h12v3h-12zM216 38h3v3h-3zM216 41h3v3h-3zM216 44h3v3h-3zM237 26h9v3h-9zM234 29h3v3h-3zM246 29h3v3h-3zM234 32h3v3h-3zM246 32h3v3h-3zM234 35h3v3h-3zM246 35h3v3h-3zM234 38h3v3h-3zM246 38h3v3h-3zM234 41h3v3h-3zM246 41h3v3h-3zM237 44h9v3h-9zM252 26h3v3h-3zM264 26h3v3h-3zM252 29h3v3h-3zM264 29h3v3h-3zM252 32h3v3h-3zM264 32h3v3h-3zM252 35h3v3h-3zM258 35h3v3h-3zM264 35h3v3h-3zM252 38h3v3h-3zM258 38h3v3h-3zM264 38h3v3h-3zM252 41h6v3h-6zM261 41h6v3h-6zM252 44h3v3h-3zM264 44h3v3h-3zM270 26h15v3h-15zM270 29h3v3h-3zM270 32h3v3h-3zM270 35h12v3h-12zM270 38h3v3h-3zM270 41h3v3h-3zM270 44h15v3h-15zM288 26h12v3h-12zM288 29h3v3h-3zM300 29h3v3h-3zM288 32h3v3h-3zM300 32h3v3h-3zM288 35h12v3h-12zM288 38h3v3h-3zM294 38h3v3h-3zM288 41h3v3h-3zM297 41h3v3h-3zM288 44h3v3h-3zM300 44h3v3h-3z"/><path fill="#0e1024" d="M548 20h30v6h-30zM572 26h6v6h-6zM566 32h6v6h-6zM560 38h6v6h-6zM554 44h6v6h-6zM554 50h6v6h-6zM554 56h6v6h-6zM584 20h30v6h-30zM584 26h6v6h-6zM584 32h24v6h-24zM608 38h6v6h-6zM608 44h6v6h-6zM584 50h6v6h-6zM608 50h6v6h-6zM590 56h18v6h-18z"/><path fill="#f4f4f4" d="M546 18h30v6h-30zM570 24h6v6h-6zM564 30h6v6h-6zM558 36h6v6h-6zM552 42h6v6h-6zM552 48h6v6h-6zM552 54h6v6h-6zM582 18h30v6h-30zM582 24h6v6h-6zM582 30h24v6h-24zM606 36h6v6h-6zM606 42h6v6h-6zM582 48h6v6h-6zM606 48h6v6h-6zM588 54h18v6h-18z"/><path fill="#3a3f66" d="M28 62h584v26h-584z"/><path fill="#0e1024" d="M31 65h578v20h-578z"/><path fill="#ffcd75" d="M31 65h434v20h-434z"/><path fill="#ffe1ac" d="M31 65h434v5h-434z"/><path fill="#b39052" d="M31 83h434v2h-434z"/><path fill="#0e1024" fill-opacity="0.4" d="M88 65h2v20h-2zM146 65h2v20h-2zM203 65h2v20h-2zM261 65h2v20h-2zM319 65h2v20h-2zM377 65h2v20h-2zM435 65h2v20h-2zM492 65h2v20h-2zM550 65h2v20h-2z"/><path fill="#3a3f66" d="M28 100h138.5v44h-138.5z"/><path fill="#0e1024" d="M31 103h132.5v38h-132.5z"/><path fill="#ffcd75" d="M48.5 108h7v3.5h-7zM48.5 111.5h7v3.5h-7zM38 115h28v3.5h-28zM41.5 118.5h21v3.5h-21zM45 122h14v3.5h-14zM45 125.5h14v3.5h-14zM41.5 129h7v3.5h-7zM55.5 129h7v3.5h-7zM41.5 132.5h3.5v3.5h-3.5zM59 132.5h3.5v3.5h-3.5zM125 112h3.5v3.5h-3.5zM121.5 115.5h7v3.5h-7zM125 119h3.5v3.5h-3.5zM125 122.5h3.5v3.5h-3.5zM125 126h3.5v3.5h-3.5zM125 129.5h3.5v3.5h-3.5zM121.5 133h10.5v3.5h-10.5zM142.5 112h10.5v3.5h-10.5zM139 115.5h3.5v3.5h-3.5zM153 115.5h3.5v3.5h-3.5zM139 119h3.5v3.5h-3.5zM153 119h3.5v3.5h-3.5zM142.5 122.5h14v3.5h-14zM153 126h3.5v3.5h-3.5zM153 129.5h3.5v3.5h-3.5zM142.5 133h10.5v3.5h-10.5z"/><path fill="#3a3f66" d="M176.5 100h138.5v44h-138.5z"/><path fill="#0e1024" d="M179.5 103h132.5v38h-132.5z"/><path fill="#ffcd75" d="M193.5 108h3.5v3.5h-3.5zM204 108h3.5v3.5h-3.5zM190 111.5h7v3.5h-7zM200.5 111.5h7v3.5h-7zM211 111.5h3.5v3.5h-3.5zM190 115h7v3.5h-7zM200.5 115h7v3.5h-7zM211 115h3.5v3.5h-3.5zM193.5 118.5h3.5v3.5h-3.5zM204 118.5h3.5v3.5h-3.5z"/><path fill="#6aa84f" d="M193.5 122h3.5v3.5h-3.5zM204 122h3.5v3.5h-3.5zM193.5 125.5h3.5v3.5h-3.5zM204 125.5h3.5v3.5h-3.5zM193.5 129h3.5v3.5h-3.5zM204 129h3.5v3.5h-3.5zM193.5 132.5h3.5v3.5h-3.5zM204 132.5h3.5v3.5h-3.5z"/><path fill="#ef7d57" d="M274 112h3.5v3.5h-3.5zM270.5 115.5h7v3.5h-7zM274 119h3.5v3.5h-3.5zM274 122.5h3.5v3.5h-3.5zM274 126h3.5v3.5h-3.5zM274 129.5h3.5v3.5h-3.5zM270.5 133h10.5v3.5h-10.5zM291.5 112h10.5v3.5h-10.5zM288 115.5h3.5v3.5h-3.5zM302 115.5h3.5v3.5h-3.5zM288 119h3.5v3.5h-3.5zM302 119h3.5v3.5h-3.5zM291.5 122.5h14v3.5h-14zM302 126h3.5v3.5h-3.5zM302 129.5h3.5v3.5h-3.5zM291.5 133h10.5v3.5h-10.5z"/><path fill="#3a3f66" d="M325 100h138.5v44h-138.5z"/><path fill="#0e1024" d="M328 103h132.5v38h-132.5z"/><path fill="#94b0c2" d="M345.5 108h7v3.5h-7zM338.5 111.5h3.5v3.5h-3.5zM345.5 111.5h7v3.5h-7zM356 111.5h3.5v3.5h-3.5zM342 115h14v3.5h-14zM335 118.5h10.5v3.5h-10.5zM352.5 118.5h10.5v3.5h-10.5zM335 122h10.5v3.5h-10.5zM352.5 122h10.5v3.5h-10.5zM342 125.5h14v3.5h-14zM338.5 129h3.5v3.5h-3.5zM345.5 129h7v3.5h-7zM356 129h3.5v3.5h-3.5zM345.5 132.5h7v3.5h-7z"/><path fill="#a7f070" d="M380 112h3.5v3.5h-3.5zM376.5 115.5h7v3.5h-7zM380 119h3.5v3.5h-3.5zM380 122.5h3.5v3.5h-3.5zM380 126h3.5v3.5h-3.5zM380 129.5h3.5v3.5h-3.5zM376.5 133h10.5v3.5h-10.5zM397.5 112h10.5v3.5h-10.5zM394 115.5h3.5v3.5h-3.5zM408 115.5h3.5v3.5h-3.5zM394 119h3.5v3.5h-3.5zM404.5 119h7v3.5h-7zM394 122.5h3.5v3.5h-3.5zM401 122.5h3.5v3.5h-3.5zM408 122.5h3.5v3.5h-3.5zM394 126h7v3.5h-7zM408 126h3.5v3.5h-3.5zM394 129.5h3.5v3.5h-3.5zM408 129.5h3.5v3.5h-3.5zM397.5 133h10.5v3.5h-10.5zM418.5 112h10.5v3.5h-10.5zM415 115.5h3.5v3.5h-3.5zM429 115.5h3.5v3.5h-3.5zM415 119h3.5v3.5h-3.5zM425.5 119h7v3.5h-7zM415 122.5h3.5v3.5h-3.5zM422 122.5h3.5v3.5h-3.5zM429 122.5h3.5v3.5h-3.5zM415 126h7v3.5h-7zM429 126h3.5v3.5h-3.5zM415 129.5h3.5v3.5h-3.5zM429 129.5h3.5v3.5h-3.5zM418.5 133h10.5v3.5h-10.5zM436 112h7v3.5h-7zM450 112h3.5v3.5h-3.5zM436 115.5h7v3.5h-7zM450 115.5h3.5v3.5h-3.5zM446.5 119h3.5v3.5h-3.5zM443 122.5h3.5v3.5h-3.5zM439.5 126h3.5v3.5h-3.5zM436 129.5h3.5v3.5h-3.5zM446.5 129.5h7v3.5h-7zM436 133h3.5v3.5h-3.5zM446.5 133h7v3.5h-7z"/><path fill="#3a3f66" d="M473.5 100h138.5v44h-138.5z"/><path fill="#0e1024" d="M476.5 103h132.5v38h-132.5z"/><path fill="#b13e53" d="M494 108h7v3.5h-7zM490.5 111.5h14v3.5h-14zM487 115h21v3.5h-21zM483.5 118.5h28v3.5h-28z"/><path fill="#b8c2d0" d="M487 122h21v3.5h-21zM487 125.5h7v3.5h-7zM501 125.5h7v3.5h-7zM487 129h7v3.5h-7zM501 129h7v3.5h-7zM487 132.5h21v3.5h-21z"/><path fill="#7a4a2b" d="M494 125.5h7v3.5h-7zM494 129h7v3.5h-7z"/><path fill="#73eff7" d="M567.5 112h10.5v3.5h-10.5zM564 115.5h3.5v3.5h-3.5zM578 115.5h3.5v3.5h-3.5zM578 119h3.5v3.5h-3.5zM574.5 122.5h3.5v3.5h-3.5zM571 126h3.5v3.5h-3.5zM567.5 129.5h3.5v3.5h-3.5zM564 133h17.5v3.5h-17.5zM588.5 112h10.5v3.5h-10.5zM585 115.5h3.5v3.5h-3.5zM599 115.5h3.5v3.5h-3.5zM599 119h3.5v3.5h-3.5zM595.5 122.5h3.5v3.5h-3.5zM592 126h3.5v3.5h-3.5zM588.5 129.5h3.5v3.5h-3.5zM585 133h17.5v3.5h-17.5z"/><path fill="#b07a1c" d="M31 158h578v40h-578zM28 161h584v34h-584z"/><path fill="#20223a" d="M34 161h572v34h-572zM31 164h578v28h-578z"/><g class="bob"><path fill="#a86b3c" d="M42 170h2.5v2.5h-2.5zM42 172.5h2.5v2.5h-2.5zM42 175h2.5v2.5h-2.5zM42 177.5h2.5v2.5h-2.5zM42 180h2.5v2.5h-2.5zM42 182.5h2.5v2.5h-2.5zM42 185h2.5v2.5h-2.5zM42 187.5h5v2.5h-5z"/><path fill="#b13e53" d="M44.5 170h10v2.5h-10zM44.5 172.5h12.5v2.5h-12.5zM44.5 175h10v2.5h-10z"/></g><path fill="#f4f4f4" d="M74 169h2.5v2.5h-2.5zM84 169h2.5v2.5h-2.5zM74 171.5h2.5v2.5h-2.5zM84 171.5h2.5v2.5h-2.5zM74 174h2.5v2.5h-2.5zM84 174h2.5v2.5h-2.5zM74 176.5h12.5v2.5h-12.5zM74 179h2.5v2.5h-2.5zM84 179h2.5v2.5h-2.5zM74 181.5h2.5v2.5h-2.5zM84 181.5h2.5v2.5h-2.5zM74 184h2.5v2.5h-2.5zM84 184h2.5v2.5h-2.5zM91.5 169h7.5v2.5h-7.5zM89 171.5h2.5v2.5h-2.5zM99 171.5h2.5v2.5h-2.5zM89 174h2.5v2.5h-2.5zM99 174h2.5v2.5h-2.5zM89 176.5h2.5v2.5h-2.5zM99 176.5h2.5v2.5h-2.5zM89 179h2.5v2.5h-2.5zM99 179h2.5v2.5h-2.5zM89 181.5h2.5v2.5h-2.5zM99 181.5h2.5v2.5h-2.5zM91.5 184h7.5v2.5h-7.5zM104 169h2.5v2.5h-2.5zM104 171.5h2.5v2.5h-2.5zM104 174h2.5v2.5h-2.5zM104 176.5h2.5v2.5h-2.5zM104 179h2.5v2.5h-2.5zM104 181.5h2.5v2.5h-2.5zM104 184h12.5v2.5h-12.5zM119 169h10v2.5h-10zM119 171.5h2.5v2.5h-2.5zM129 171.5h2.5v2.5h-2.5zM119 174h2.5v2.5h-2.5zM129 174h2.5v2.5h-2.5zM119 176.5h2.5v2.5h-2.5zM129 176.5h2.5v2.5h-2.5zM119 179h2.5v2.5h-2.5zM129 179h2.5v2.5h-2.5zM119 181.5h2.5v2.5h-2.5zM129 181.5h2.5v2.5h-2.5zM119 184h10v2.5h-10zM151.5 169h7.5v2.5h-7.5zM149 171.5h2.5v2.5h-2.5zM159 171.5h2.5v2.5h-2.5zM149 174h2.5v2.5h-2.5zM159 174h2.5v2.5h-2.5zM149 176.5h12.5v2.5h-12.5zM149 179h2.5v2.5h-2.5zM159 179h2.5v2.5h-2.5zM149 181.5h2.5v2.5h-2.5zM159 181.5h2.5v2.5h-2.5zM149 184h2.5v2.5h-2.5zM159 184h2.5v2.5h-2.5zM181.5 169h7.5v2.5h-7.5zM179 171.5h2.5v2.5h-2.5zM189 171.5h2.5v2.5h-2.5zM189 174h2.5v2.5h-2.5zM184 176.5h5v2.5h-5zM189 179h2.5v2.5h-2.5zM179 181.5h2.5v2.5h-2.5zM189 181.5h2.5v2.5h-2.5zM181.5 184h7.5v2.5h-7.5zM196.5 169h7.5v2.5h-7.5zM194 171.5h2.5v2.5h-2.5zM204 171.5h2.5v2.5h-2.5zM194 174h2.5v2.5h-2.5zM201.5 174h5v2.5h-5zM194 176.5h2.5v2.5h-2.5zM199 176.5h2.5v2.5h-2.5zM204 176.5h2.5v2.5h-2.5zM194 179h5v2.5h-5zM204 179h2.5v2.5h-2.5zM194 181.5h2.5v2.5h-2.5zM204 181.5h2.5v2.5h-2.5zM196.5 184h7.5v2.5h-7.5zM224 169h10v2.5h-10zM224 171.5h2.5v2.5h-2.5zM234 171.5h2.5v2.5h-2.5zM224 174h2.5v2.5h-2.5zM234 174h2.5v2.5h-2.5zM224 176.5h2.5v2.5h-2.5zM234 176.5h2.5v2.5h-2.5zM224 179h2.5v2.5h-2.5zM234 179h2.5v2.5h-2.5zM224 181.5h2.5v2.5h-2.5zM234 181.5h2.5v2.5h-2.5zM224 184h10v2.5h-10zM241.5 169h7.5v2.5h-7.5zM239 171.5h2.5v2.5h-2.5zM249 171.5h2.5v2.5h-2.5zM239 174h2.5v2.5h-2.5zM249 174h2.5v2.5h-2.5zM239 176.5h12.5v2.5h-12.5zM239 179h2.5v2.5h-2.5zM249 179h2.5v2.5h-2.5zM239 181.5h2.5v2.5h-2.5zM249 181.5h2.5v2.5h-2.5zM239 184h2.5v2.5h-2.5zM249 184h2.5v2.5h-2.5zM254 169h2.5v2.5h-2.5zM264 169h2.5v2.5h-2.5zM254 171.5h2.5v2.5h-2.5zM264 171.5h2.5v2.5h-2.5zM256.5 174h2.5v2.5h-2.5zM261.5 174h2.5v2.5h-2.5zM259 176.5h2.5v2.5h-2.5zM259 179h2.5v2.5h-2.5zM259 181.5h2.5v2.5h-2.5zM259 184h2.5v2.5h-2.5zM286.5 169h10v2.5h-10zM284 171.5h2.5v2.5h-2.5zM284 174h2.5v2.5h-2.5zM286.5 176.5h7.5v2.5h-7.5zM294 179h2.5v2.5h-2.5zM294 181.5h2.5v2.5h-2.5zM284 184h10v2.5h-10zM299 169h12.5v2.5h-12.5zM304 171.5h2.5v2.5h-2.5zM304 174h2.5v2.5h-2.5zM304 176.5h2.5v2.5h-2.5zM304 179h2.5v2.5h-2.5zM304 181.5h2.5v2.5h-2.5zM304 184h2.5v2.5h-2.5zM314 169h10v2.5h-10zM314 171.5h2.5v2.5h-2.5zM324 171.5h2.5v2.5h-2.5zM314 174h2.5v2.5h-2.5zM324 174h2.5v2.5h-2.5zM314 176.5h10v2.5h-10zM314 179h2.5v2.5h-2.5zM319 179h2.5v2.5h-2.5zM314 181.5h2.5v2.5h-2.5zM321.5 181.5h2.5v2.5h-2.5zM314 184h2.5v2.5h-2.5zM324 184h2.5v2.5h-2.5zM329 169h12.5v2.5h-12.5zM329 171.5h2.5v2.5h-2.5zM329 174h2.5v2.5h-2.5zM329 176.5h10v2.5h-10zM329 179h2.5v2.5h-2.5zM329 181.5h2.5v2.5h-2.5zM329 184h12.5v2.5h-12.5zM346.5 169h7.5v2.5h-7.5zM344 171.5h2.5v2.5h-2.5zM354 171.5h2.5v2.5h-2.5zM344 174h2.5v2.5h-2.5zM354 174h2.5v2.5h-2.5zM344 176.5h12.5v2.5h-12.5zM344 179h2.5v2.5h-2.5zM354 179h2.5v2.5h-2.5zM344 181.5h2.5v2.5h-2.5zM354 181.5h2.5v2.5h-2.5zM344 184h2.5v2.5h-2.5zM354 184h2.5v2.5h-2.5zM359 169h2.5v2.5h-2.5zM369 169h2.5v2.5h-2.5zM359 171.5h2.5v2.5h-2.5zM366.5 171.5h2.5v2.5h-2.5zM359 174h2.5v2.5h-2.5zM364 174h2.5v2.5h-2.5zM359 176.5h5v2.5h-5zM359 179h2.5v2.5h-2.5zM364 179h2.5v2.5h-2.5zM359 181.5h2.5v2.5h-2.5zM366.5 181.5h2.5v2.5h-2.5zM359 184h2.5v2.5h-2.5zM369 184h2.5v2.5h-2.5z"/><path fill="#3a3f66" d="M388 168h110v20h-110z"/><path fill="#0e1024" d="M391 171h104v14h-104z"/><path fill="#73eff7" d="M391 171h66v14h-66z"/><path fill="#abf5fa" d="M391 171h66v4h-66z"/><path fill="#51a7ad" d="M391 183h66v2h-66z"/><path fill="#0e1024" fill-opacity="0.4" d="M400 171h2v14h-2zM411 171h2v14h-2zM421 171h2v14h-2zM432 171h2v14h-2zM442 171h2v14h-2zM452 171h2v14h-2zM463 171h2v14h-2zM473 171h2v14h-2zM484 171h2v14h-2z"/><path fill="#94b0c2" d="M531 172h2.5v2.5h-2.5zM528.5 174.5h5v2.5h-5zM531 177h2.5v2.5h-2.5zM531 179.5h2.5v2.5h-2.5zM531 182h2.5v2.5h-2.5zM531 184.5h2.5v2.5h-2.5zM528.5 187h7.5v2.5h-7.5zM543.5 172h7.5v2.5h-7.5zM541 174.5h2.5v2.5h-2.5zM551 174.5h2.5v2.5h-2.5zM541 177h2.5v2.5h-2.5zM551 177h2.5v2.5h-2.5zM543.5 179.5h10v2.5h-10zM551 182h2.5v2.5h-2.5zM551 184.5h2.5v2.5h-2.5zM543.5 187h7.5v2.5h-7.5zM566 172h2.5v2.5h-2.5zM566 174.5h2.5v2.5h-2.5zM563.5 177h2.5v2.5h-2.5zM561 179.5h2.5v2.5h-2.5zM558.5 182h2.5v2.5h-2.5zM556 184.5h2.5v2.5h-2.5zM556 187h2.5v2.5h-2.5zM573.5 172h7.5v2.5h-7.5zM571 174.5h2.5v2.5h-2.5zM581 174.5h2.5v2.5h-2.5zM581 177h2.5v2.5h-2.5zM576 179.5h5v2.5h-5zM581 182h2.5v2.5h-2.5zM571 184.5h2.5v2.5h-2.5zM581 184.5h2.5v2.5h-2.5zM573.5 187h7.5v2.5h-7.5zM588.5 172h7.5v2.5h-7.5zM586 174.5h2.5v2.5h-2.5zM596 174.5h2.5v2.5h-2.5zM586 177h2.5v2.5h-2.5zM593.5 177h5v2.5h-5zM586 179.5h2.5v2.5h-2.5zM591 179.5h2.5v2.5h-2.5zM596 179.5h2.5v2.5h-2.5zM586 182h5v2.5h-5zM596 182h2.5v2.5h-2.5zM586 184.5h2.5v2.5h-2.5zM596 184.5h2.5v2.5h-2.5zM588.5 187h7.5v2.5h-7.5z"/><path fill="#b07a1c" d="M31 206h578v40h-578zM28 209h584v34h-584z"/><path fill="#20223a" d="M34 209h572v34h-572zM31 212h578v28h-578z"/><g class="bob"><path fill="#a86b3c" d="M42 218h2.5v2.5h-2.5zM42 220.5h2.5v2.5h-2.5zM42 223h2.5v2.5h-2.5zM42 225.5h2.5v2.5h-2.5zM42 228h2.5v2.5h-2.5zM42 230.5h2.5v2.5h-2.5zM42 233h2.5v2.5h-2.5zM42 235.5h5v2.5h-5z"/><path fill="#b13e53" d="M44.5 218h10v2.5h-10zM44.5 220.5h12.5v2.5h-12.5zM44.5 223h10v2.5h-10z"/></g><path fill="#f4f4f4" d="M74 217h15v3h-15zM74 220h3v3h-3zM74 223h3v3h-3zM74 226h12v3h-12zM74 229h3v3h-3zM74 232h3v3h-3zM74 235h15v3h-15zM95 217h9v3h-9zM92 220h3v3h-3zM104 220h3v3h-3zM92 223h3v3h-3zM104 223h3v3h-3zM92 226h15v3h-15zM92 229h3v3h-3zM104 229h3v3h-3zM92 232h3v3h-3zM104 232h3v3h-3zM92 235h3v3h-3zM104 235h3v3h-3zM110 217h12v3h-12zM110 220h3v3h-3zM122 220h3v3h-3zM110 223h3v3h-3zM122 223h3v3h-3zM110 226h12v3h-12zM110 229h3v3h-3zM116 229h3v3h-3zM110 232h3v3h-3zM119 232h3v3h-3zM110 235h3v3h-3zM122 235h3v3h-3zM128 217h3v3h-3zM140 217h3v3h-3zM128 220h6v3h-6zM140 220h3v3h-3zM128 223h3v3h-3zM134 223h3v3h-3zM140 223h3v3h-3zM128 226h3v3h-3zM137 226h6v3h-6zM128 229h3v3h-3zM140 229h3v3h-3zM128 232h3v3h-3zM140 232h3v3h-3zM128 235h3v3h-3zM140 235h3v3h-3zM167 217h9v3h-9zM164 220h3v3h-3zM176 220h3v3h-3zM176 223h3v3h-3zM173 226h3v3h-3zM170 229h3v3h-3zM167 232h3v3h-3zM164 235h15v3h-15zM182 217h15v3h-15zM182 220h3v3h-3zM182 223h12v3h-12zM194 226h3v3h-3zM194 229h3v3h-3zM182 232h3v3h-3zM194 232h3v3h-3zM185 235h9v3h-9zM221 217h12v3h-12zM218 220h3v3h-3zM218 223h3v3h-3zM221 226h9v3h-9zM230 229h3v3h-3zM230 232h3v3h-3zM218 235h12v3h-12zM236 217h15v3h-15zM242 220h3v3h-3zM242 223h3v3h-3zM242 226h3v3h-3zM242 229h3v3h-3zM242 232h3v3h-3zM242 235h3v3h-3zM257 217h9v3h-9zM254 220h3v3h-3zM266 220h3v3h-3zM254 223h3v3h-3zM266 223h3v3h-3zM254 226h15v3h-15zM254 229h3v3h-3zM266 229h3v3h-3zM254 232h3v3h-3zM266 232h3v3h-3zM254 235h3v3h-3zM266 235h3v3h-3zM272 217h12v3h-12zM272 220h3v3h-3zM284 220h3v3h-3zM272 223h3v3h-3zM284 223h3v3h-3zM272 226h12v3h-12zM272 229h3v3h-3zM278 229h3v3h-3zM272 232h3v3h-3zM281 232h3v3h-3zM272 235h3v3h-3zM284 235h3v3h-3zM293 217h12v3h-12zM290 220h3v3h-3zM290 223h3v3h-3zM293 226h9v3h-9zM302 229h3v3h-3zM302 232h3v3h-3zM290 235h12v3h-12z"/><path fill="#3a3f66" d="M388 216h110v20h-110z"/><path fill="#0e1024" d="M391 219h104v14h-104z"/><path fill="#73eff7" d="M391 219h79v14h-79z"/><path fill="#abf5fa" d="M391 219h79v4h-79z"/><path fill="#51a7ad" d="M391 231h79v2h-79z"/><path fill="#0e1024" fill-opacity="0.4" d="M400 219h2v14h-2zM411 219h2v14h-2zM421 219h2v14h-2zM432 219h2v14h-2zM442 219h2v14h-2zM452 219h2v14h-2zM463 219h2v14h-2zM473 219h2v14h-2zM484 219h2v14h-2z"/><path fill="#94b0c2" d="M531 220h2.5v2.5h-2.5zM528.5 222.5h5v2.5h-5zM531 225h2.5v2.5h-2.5zM531 227.5h2.5v2.5h-2.5zM531 230h2.5v2.5h-2.5zM531 232.5h2.5v2.5h-2.5zM528.5 235h7.5v2.5h-7.5zM543.5 220h7.5v2.5h-7.5zM541 222.5h2.5v2.5h-2.5zM551 222.5h2.5v2.5h-2.5zM541 225h2.5v2.5h-2.5zM551 225h2.5v2.5h-2.5zM543.5 227.5h10v2.5h-10zM551 230h2.5v2.5h-2.5zM551 232.5h2.5v2.5h-2.5zM543.5 235h7.5v2.5h-7.5zM566 220h2.5v2.5h-2.5zM566 222.5h2.5v2.5h-2.5zM563.5 225h2.5v2.5h-2.5zM561 227.5h2.5v2.5h-2.5zM558.5 230h2.5v2.5h-2.5zM556 232.5h2.5v2.5h-2.5zM556 235h2.5v2.5h-2.5zM573.5 220h7.5v2.5h-7.5zM571 222.5h2.5v2.5h-2.5zM581 222.5h2.5v2.5h-2.5zM581 225h2.5v2.5h-2.5zM578.5 227.5h2.5v2.5h-2.5zM576 230h2.5v2.5h-2.5zM573.5 232.5h2.5v2.5h-2.5zM571 235h12.5v2.5h-12.5zM586 220h12.5v2.5h-12.5zM586 222.5h2.5v2.5h-2.5zM586 225h10v2.5h-10zM596 227.5h2.5v2.5h-2.5zM596 230h2.5v2.5h-2.5zM586 232.5h2.5v2.5h-2.5zM596 232.5h2.5v2.5h-2.5zM588.5 235h7.5v2.5h-7.5z"/><path fill="#2e6b4a" d="M31 254h578v40h-578zM28 257h584v34h-584z"/><path fill="#1c3a2c" d="M34 257h572v34h-572zM31 260h578v28h-578z"/><g><path fill="#a7f070" d="M57 266h5v2.5h-5zM54.5 268.5h5v2.5h-5zM42 271h5v2.5h-5zM52 271h5v2.5h-5zM44.5 273.5h10v2.5h-10zM47 276h5v2.5h-5z"/></g><path fill="#a7f070" d="M77 265h12v3h-12zM74 268h3v3h-3zM74 271h3v3h-3zM77 274h9v3h-9zM86 277h3v3h-3zM86 280h3v3h-3zM74 283h12v3h-12zM92 265h3v3h-3zM104 265h3v3h-3zM92 268h3v3h-3zM104 268h3v3h-3zM92 271h3v3h-3zM104 271h3v3h-3zM92 274h15v3h-15zM92 277h3v3h-3zM104 277h3v3h-3zM92 280h3v3h-3zM104 280h3v3h-3zM92 283h3v3h-3zM104 283h3v3h-3zM110 265h15v3h-15zM116 268h3v3h-3zM116 271h3v3h-3zM116 274h3v3h-3zM116 277h3v3h-3zM116 280h3v3h-3zM110 283h15v3h-15zM128 265h12v3h-12zM128 268h3v3h-3zM140 268h3v3h-3zM128 271h3v3h-3zM140 271h3v3h-3zM128 274h12v3h-12zM128 277h3v3h-3zM128 280h3v3h-3zM128 283h3v3h-3zM167 265h9v3h-9zM164 268h3v3h-3zM176 268h3v3h-3zM164 271h3v3h-3zM176 271h3v3h-3zM164 274h15v3h-15zM164 277h3v3h-3zM176 277h3v3h-3zM164 280h3v3h-3zM176 280h3v3h-3zM164 283h3v3h-3zM176 283h3v3h-3zM200 265h12v3h-12zM200 268h3v3h-3zM212 268h3v3h-3zM200 271h3v3h-3zM212 271h3v3h-3zM200 274h12v3h-12zM200 277h3v3h-3zM206 277h3v3h-3zM200 280h3v3h-3zM209 280h3v3h-3zM200 283h3v3h-3zM212 283h3v3h-3zM218 265h15v3h-15zM218 268h3v3h-3zM218 271h3v3h-3zM218 274h12v3h-12zM218 277h3v3h-3zM218 280h3v3h-3zM218 283h15v3h-15zM236 265h3v3h-3zM236 268h3v3h-3zM236 271h3v3h-3zM236 274h3v3h-3zM236 277h3v3h-3zM236 280h3v3h-3zM236 283h15v3h-15zM254 265h15v3h-15zM254 268h3v3h-3zM254 271h3v3h-3zM254 274h12v3h-12zM254 277h3v3h-3zM254 280h3v3h-3zM254 283h15v3h-15zM275 265h9v3h-9zM272 268h3v3h-3zM284 268h3v3h-3zM272 271h3v3h-3zM284 271h3v3h-3zM272 274h15v3h-15zM272 277h3v3h-3zM284 277h3v3h-3zM272 280h3v3h-3zM284 280h3v3h-3zM272 283h3v3h-3zM284 283h3v3h-3zM293 265h12v3h-12zM290 268h3v3h-3zM290 271h3v3h-3zM293 274h9v3h-9zM302 277h3v3h-3zM302 280h3v3h-3zM290 283h12v3h-12zM308 265h15v3h-15zM308 268h3v3h-3zM308 271h3v3h-3zM308 274h12v3h-12zM308 277h3v3h-3zM308 280h3v3h-3zM308 283h15v3h-15zM529 266h12v3h-12zM529 269h3v3h-3zM541 269h3v3h-3zM529 272h3v3h-3zM541 272h3v3h-3zM529 275h3v3h-3zM541 275h3v3h-3zM529 278h3v3h-3zM541 278h3v3h-3zM529 281h3v3h-3zM541 281h3v3h-3zM529 284h12v3h-12zM550 266h9v3h-9zM547 269h3v3h-3zM559 269h3v3h-3zM547 272h3v3h-3zM559 272h3v3h-3zM547 275h3v3h-3zM559 275h3v3h-3zM547 278h3v3h-3zM559 278h3v3h-3zM547 281h3v3h-3zM559 281h3v3h-3zM550 284h9v3h-9zM565 266h3v3h-3zM577 266h3v3h-3zM565 269h6v3h-6zM577 269h3v3h-3zM565 272h3v3h-3zM571 272h3v3h-3zM577 272h3v3h-3zM565 275h3v3h-3zM574 275h6v3h-6zM565 278h3v3h-3zM577 278h3v3h-3zM565 281h3v3h-3zM577 281h3v3h-3zM565 284h3v3h-3zM577 284h3v3h-3zM583 266h15v3h-15zM583 269h3v3h-3zM583 272h3v3h-3zM583 275h12v3h-12zM583 278h3v3h-3zM583 281h3v3h-3zM583 284h15v3h-15z"/></svg>
