<svg xmlns="http://www.w3.org/2000/svg" xmlns:xlink="http://www.w3.org/1999/xlink" viewBox="0 0 300 92" width="300" height="92" role="img" aria-labelledby="t d" shape-rendering="crispEdges"><title id="t">Plant your flag in the visitor camp</title><desc id="d">Plant your flag in the visitor camp.</desc><style>.fl{animation:fl 1s steps(1) infinite}@keyframes fl{0%{opacity:1}50%{opacity:.5}}.f1{animation:f1 .8s steps(1) infinite}@keyframes f1{0%{opacity:1}50%{opacity:0}}.f2{animation:f2 .8s steps(1) infinite}@keyframes f2{0%{opacity:0}50%{opacity:1}}.tw{animation:tw 2.6s ease-in-out infinite}@keyframes tw{0%,100%{opacity:.2}50%{opacity:1}}.bob{animation:bob .9s steps(1) infinite}@keyframes bob{0%{transform:translateY(0)}50%{transform:translateY(-4px)}}.bob2{animation:bob2 1.6s steps(1) infinite}@keyframes bob2{0%{transform:translateY(0)}50%{transform:translateY(-8px)}}.dr{animation:dr 90s linear infinite}@keyframes dr{from{transform:translateX(-160px)}to{transform:translateX(720px)}}.sm{animation:sm 3.2s linear infinite}@keyframes sm{0%{transform:translateY(0);opacity:0}15%{opacity:.85}100%{transform:translateY(-44px);opacity:0}}.wk{animation:wk var(--t,12s) linear infinite}@keyframes wk{0%,100%{transform:translateX(0)}50%{transform:translateX(var(--dx,48px))}}.wy{animation:wy var(--t,12s) linear infinite}@keyframes wy{0%,100%{transform:translateY(0)}50%{transform:translateY(var(--dy,40px))}}.fc{transform-box:fill-box;transform-origin:center;animation:fc var(--t,12s) steps(1) infinite}@keyframes fc{0%{transform:scaleX(1)}50%{transform:scaleX(-1)}}.rn{animation:rn .8s linear infinite}@keyframes rn{from{transform:translate(0,0)}to{transform:translate(-22px,88px)}}.lt{animation:lt 7s steps(1) infinite}@keyframes lt{0%,90%,94%,100%{opacity:0}91%,95%{opacity:.85}}.zz{animation:zz 3s linear infinite}@keyframes zz{0%{transform:translate(0,0);opacity:0}20%{opacity:1}100%{transform:translate(8px,-24px);opacity:0}}.fw{transform-box:fill-box;transform-origin:center;animation:fw 3s ease-out infinite}@keyframes fw{0%{transform:scale(.1);opacity:1}70%{opacity:1}100%{transform:scale(1.2);opacity:0}}.cf{animation:cf 5s linear infinite}@keyframes cf{from{transform:translateY(-20px)}to{transform:translateY(260px)}}.sw{transform-box:fill-box;transform-origin:50% 100%;animation:sw .9s steps(2) infinite}@keyframes sw{0%{transform:rotate(-35deg)}50%{transform:rotate(30deg)}}@keyframes sp{to{transform:rotate(360deg)}}.pu{animation:pu 3s ease-in-out infinite}@keyframes pu{0%,100%{opacity:.35}50%{opacity:.9}}.fa{animation:fa 9s linear infinite}@keyframes fa{0%{transform:translate(0,-10px)}100%{transform:translate(-36px,320px)}}@media (prefers-reduced-motion:reduce){*{animation:none!important}}</style><path fill="#14162b" d="M0 0h300v92h-300z"/><path fill="#a7f070" d="M0 0h300v4h-300z"/><path fill="#0e1024" d="M0 88h300v4h-300z"/><path fill="#7a4a2b" d="M20 4h8v88h-8z"/><path fill="#a86b3c" d="M20 4h3v88h-3zM34 14h252v60h-252z"/><path fill="#d3a66e" d="M34 14h252v4h-252z"/><path fill="#7a4a2b" d="M34 70h252v4h-252z"/><path fill="#4e2f1c" d="M38 18h4v4h-4zM276 18h4v4h-4zM38 66h4v4h-4zM276 66h4v4h-4z"/><g class="bob"><path fill="#a86b3c" d="M50 26h5v5h-5zM50 31h5v5h-5zM50 36h5v5h-5zM50 41h5v5h-5zM50 46h5v5h-5zM50 51h5v5h-5zM50 56h5v5h-5zM50 61h10v5h-10z"/><path fill="#b13e53" d="M55 26h20v5h-20zM55 31h25v5h-25zM55 36h20v5h-20z"/></g><path fill="#2a1608" d="M101 37h10v2.5h-10zM101 39.5h2.5v2.5h-2.5zM111 39.5h2.5v2.5h-2.5zM101 42h2.5v2.5h-2.5zM111 42h2.5v2.5h-2.5zM101 44.5h10v2.5h-10zM101 47h2.5v2.5h-2.5zM101 49.5h2.5v2.5h-2.5zM101 52h2.5v2.5h-2.5zM116 37h2.5v2.5h-2.5zM116 39.5h2.5v2.5h-2.5zM116 42h2.5v2.5h-2.5zM116 44.5h2.5v2.5h-2.5zM116 47h2.5v2.5h-2.5zM116 49.5h2.5v2.5h-2.5zM116 52h12.5v2.5h-12.5zM133.5 37h7.5v2.5h-7.5zM131 39.5h2.5v2.5h-2.5zM141 39.5h2.5v2.5h-2.5zM131 42h2.5v2.5h-2.5zM141 42h2.5v2.5h-2.5zM131 44.5h12.5v2.5h-12.5zM131 47h2.5v2.5h-2.5zM141 47h2.5v2.5h-2.5zM131 49.5h2.5v2.5h-2.5zM141 49.5h2.5v2.5h-2.5zM131 52h2.5v2.5h-2.5zM141 52h2.5v2.5h-2.5zM146 37h2.5v2.5h-2.5zM156 37h2.5v2.5h-2.5zM146 39.5h5v2.5h-5zM156 39.5h2.5v2.5h-2.5zM146 42h2.5v2.5h-2.5zM151 42h2.5v2.5h-2.5zM156 42h2.5v2.5h-2.5zM146 44.5h2.5v2.5h-2.5zM153.5 44.5h5v2.5h-5zM146 47h2.5v2.5h-2.5zM156 47h2.5v2.5h-2.5zM146 49.5h2.5v2.5h-2.5zM156 49.5h2.5v2.5h-2.5zM146 52h2.5v2.5h-2.5zM156 52h2.5v2.5h-2.5zM161 37h12.5v2.5h-12.5zM166 39.5h2.5v2.5h-2.5zM166 42h2.5v2.5h-2.5zM166 44.5h2.5v2.5h-2.5zM166 47h2.5v2.5h-2.5zM166 49.5h2.5v2.5h-2.5zM166 52h2.5v2.5h-2.5zM193.5 37h7.5v2.5h-7.5zM191 39.5h2.5v2.5h-2.5zM201 39.5h2.5v2.5h-2.5zM191 42h2.5v2.5h-2.5zM201 42h2.5v2.5h-2.5zM191 44.5h12.5v2.5h-12.5zM191 47h2.5v2.5h-2.5zM201 47h2.5v2.5h-2.5zM191 49.5h2.5v2.5h-2.5zM201 49.5h2.5v2.5h-2.5zM191 52h2.5v2.5h-2.5zM201 52h2.5v2.5h-2.5zM221 37h12.5v2.5h-12.5zM221 39.5h2.5v2.5h-2.5zM221 42h2.5v2.5h-2.5zM221 44.5h10v2.5h-10zM221 47h2.5v2.5h-2.5zM221 49.5h2.5v2.5h-2.5zM221 52h2.5v2.5h-2.5zM236 37h2.5v2.5h-2.5zM236 39.5h2.5v2.5h-2.5zM236 42h2.5v2.5h-2.5zM236 44.5h2.5v2.5h-2.5zM236 47h2.5v2.5h-2.5zM236 49.5h2.5v2.5h-2.5zM236 52h12.5v2.5h-12.5zM253.5 37h7.5v2.5h-7.5zM251 39.5h2.5v2.5h-2.5zM261 39.5h2.5v2.5h-2.5zM251 42h2.5v2.5h-2.5zM261 42h2.5v2.5h-2.5zM251 44.5h12.5v2.5h-12.5zM251 47h2.5v2.5h-2.5zM261 47h2.5v2.5h-2.5zM251 49.5h2.5v2.5h-2.5zM261 49.5h2.5v2.5h-2.5zM251 52h2.5v2.5h-2.5zM261 52h2.5v2.5h-2.5zM268.5 37h10v2.5h-10zM266 39.5h2.5v2.5h-2.5zM266 42h2.5v2.5h-2.5zM266 44.5h2.5v2.5h-2.5zM273.5 44.5h5v2.5h-5zM266 47h2.5v2.5h-2.5zM276 47h2.5v2.5h-2.5zM266 49.5h2.5v2.5h-2.5zM276 49.5h2.5v2.5h-2.5zM268.5 52h7.5v2.5h-7.5z"/><path fill="#fff0d0" d="M100 36h10v2.5h-10zM100 38.5h2.5v2.5h-2.5zM110 38.5h2.5v2.5h-2.5zM100 41h2.5v2.5h-2.5zM110 41h2.5v2.5h-2.5zM100 43.5h10v2.5h-10zM100 46h2.5v2.5h-2.5zM100 48.5h2.5v2.5h-2.5zM100 51h2.5v2.5h-2.5zM115 36h2.5v2.5h-2.5zM115 38.5h2.5v2.5h-2.5zM115 41h2.5v2.5h-2.5zM115 43.5h2.5v2.5h-2.5zM115 46h2.5v2.5h-2.5zM115 48.5h2.5v2.5h-2.5zM115 51h12.5v2.5h-12.5zM132.5 36h7.5v2.5h-7.5zM130 38.5h2.5v2.5h-2.5zM140 38.5h2.5v2.5h-2.5zM130 41h2.5v2.5h-2.5zM140 41h2.5v2.5h-2.5zM130 43.5h12.5v2.5h-12.5zM130 46h2.5v2.5h-2.5zM140 46h2.5v2.5h-2.5zM130 48.5h2.5v2.5h-2.5zM140 48.5h2.5v2.5h-2.5zM130 51h2.5v2.5h-2.5zM140 51h2.5v2.5h-2.5zM145 36h2.5v2.5h-2.5zM155 36h2.5v2.5h-2.5zM145 38.5h5v2.5h-5zM155 38.5h2.5v2.5h-2.5zM145 41h2.5v2.5h-2.5zM150 41h2.5v2.5h-2.5zM155 41h2.5v2.5h-2.5zM145 43.5h2.5v2.5h-2.5zM152.5 43.5h5v2.5h-5zM145 46h2.5v2.5h-2.5zM155 46h2.5v2.5h-2.5zM145 48.5h2.5v2.5h-2.5zM155 48.5h2.5v2.5h-2.5zM145 51h2.5v2.5h-2.5zM155 51h2.5v2.5h-2.5zM160 36h12.5v2.5h-12.5zM165 38.5h2.5v2.5h-2.5zM165 41h2.5v2.5h-2.5zM165 43.5h2.5v2.5h-2.5zM165 46h2.5v2.5h-2.5zM165 48.5h2.5v2.5h-2.5zM165 51h2.5v2.5h-2.5zM192.5 36h7.5v2.5h-7.5zM190 38.5h2.5v2.5h-2.5zM200 38.5h2.5v2.5h-2.5zM190 41h2.5v2.5h-2.5zM200 41h2.5v2.5h-2.5zM190 43.5h12.5v2.5h-12.5zM190 46h2.5v2.5h-2.5zM200 46h2.5v2.5h-2.5zM190 48.5h2.5v2.5h-2.5zM200 48.5h2.5v2.5h-2.5zM190 51h2.5v2.5h-2.5zM200 51h2.5v2.5h-2.5zM220 36h12.5v2.5h-12.5zM220 38.5h2.5v2.5h-2.5zM220 41h2.5v2.5h-2.5zM220 43.5h10v2.5h-10zM220 46h2.5v2.5h-2.5zM220 48.5h2.5v2.5h-2.5zM220 51h2.5v2.5h-2.5zM235 36h2.5v2.5h-2.5zM235 38.5h2.5v2.5h-2.5zM235 41h2.5v2.5h-2.5zM235 43.5h2.5v2.5h-2.5zM235 46h2.5v2.5h-2.5zM235 48.5h2.5v2.5h-2.5zM235 51h12.5v2.5h-12.5zM252.5 36h7.5v2.5h-7.5zM250 38.5h2.5v2.5h-2.5zM260 38.5h2.5v2.5h-2.5zM250 41h2.5v2.5h-2.5zM260 41h2.5v2.5h-2.5zM250 43.5h12.5v2.5h-12.5zM250 46h2.5v2.5h-2.5zM260 46h2.5v2.5h-2.5zM250 48.5h2.5v2.5h-2.5zM260 48.5h2.5v2.5h-2.5zM250 51h2.5v2.5h-2.5zM260 51h2.5v2.5h-2.5zM267.5 36h10v2.5h-10zM265 38.5h2.5v2.5h-2.5zM265 41h2.5v2.5h-2.5zM265 43.5h2.5v2.5h-2.5zM272.5 43.5h5v2.5h-5zM265 46h2.5v2.5h-2.5zM275 46h2.5v2.5h-2.5zM265 48.5h2.5v2.5h-2.5zM275 48.5h2.5v2.5h-2.5zM267.5 51h7.5v2.5h-7.5z"/></svg>
